<?xml version="1.0" encoding="UTF-8"?>
<svg width="160px" height="84px" viewBox="0 0 160 84" version="1.1" xmlns="http://www.w3.org/2000/svg" xmlns:xlink="http://www.w3.org/1999/xlink">
    <title>Group 15</title>
    <g id="ðŸ”-Enterprise:-Homepage" stroke="none" stroke-width="1" fill="none" fill-rule="evenodd">
        <g id="Logos" transform="translate(-160.000000, -637.000000)">
            <g id="Group-15" transform="translate(160.000000, 637.000000)">
                <rect id="Rectangle" x="0" y="0" width="160" height="84"></rect>
                <g id="dunkin-logo-(1)" transform="translate(13.000000, 31.000000)" fill="#222222" fill-rule="nonzero">
                    <path d="M54.5102165,12.7121925 C54.4259984,12.8315521 54.4681075,12.9708051 54.4681075,13.0901647 L54.4681075,18.8592147 C54.4681075,19.3963331 54.4049438,19.9135583 54.2365075,20.4307834 C53.7311984,22.0819253 52.2573803,23.0765891 50.4256349,22.9572295 C48.1727986,22.8179765 46.8884713,21.5249136 46.7410895,19.2769735 C46.720035,19.0581474 46.720035,18.8194281 46.720035,18.6006021 L46.720035,3.76021841 C46.720035,2.2085429 47.3306168,0.995053084 48.8886531,0.398254813 C50.4887985,-0.218436734 52.0047257,0.000389298795 53.3101075,1.11441274 C54.025962,1.71121101 54.5312711,2.50694204 55.0997438,3.22309996 C56.847271,5.47104012 58.700071,7.65930044 60.3423255,9.9868137 C60.5107618,10.225533 60.6581436,10.4642523 60.9107982,10.6830783 L60.9107982,10.3051061 L60.9107982,4.13819064 C60.9107982,3.28277979 61.05818,2.46715549 61.52138,1.73110428 C62.3635618,0.378361537 63.6899981,-0.0592905283 65.2480344,0.0998556773 C67.0797798,0.259001883 68.3009434,1.43270515 68.5535979,3.18331341 C68.6167616,3.58117892 68.6378161,3.97904444 68.6378161,4.37690995 L68.6378161,19.2570802 C68.6378161,20.7888624 68.0693434,22.0023522 66.5534162,22.638937 C64.9322162,23.2954151 63.3741799,23.0566958 62.0477436,21.9227791 C61.2266163,21.2265145 60.6160345,20.3313171 59.9212346,19.4957995 C58.0894892,17.2876459 56.1314165,15.1590654 54.5733802,12.751979 C54.5733802,12.7320857 54.5523256,12.7320857 54.5102165,12.7121925 L54.5102165,12.7121925 Z M111.294324,12.751979 L111.294324,13.1697378 C111.294324,15.2585318 111.273269,17.3274324 111.252215,19.4162264 C111.252215,20.0130247 111.062724,20.5700364 110.789015,21.0872615 C110.136324,22.3405379 108.746724,23.0566958 107.209742,22.9373362 C105.02007,22.77819 103.714688,21.4851271 103.567306,19.3764398 C103.567306,19.2570802 103.546251,19.1377205 103.546251,19.0183609 C103.546251,13.8063226 103.525197,8.5942844 103.546251,3.38224617 C103.546251,2.0493967 104.219997,1.03483964 105.48327,0.45793464 C106.914979,-0.178650183 108.304579,-0.079183804 109.652069,0.7364405 C110.052106,0.975159808 110.388979,1.29345222 110.662688,1.63163791 C112.789197,4.3371234 114.978869,6.98292907 117.000106,9.76798767 C117.231706,10.0862801 117.442251,10.4045725 117.71596,10.8223313 L117.71596,10.3051061 L117.71596,4.01883099 C117.71596,3.02416721 117.94756,2.06928997 118.64236,1.27355894 C119.674033,0.0998556773 121.063633,-0.0990770797 122.537451,0.159535504 C123.927051,0.418148089 124.790287,1.29345222 125.190324,2.54672859 C125.379814,3.14352686 125.421924,3.74032513 125.421924,4.35701668 L125.421924,19.2769735 C125.421924,20.7888624 124.832396,22.0023522 123.337524,22.6190438 C121.779487,23.2556286 120.284615,23.0566958 118.958178,22.0222455 C118.747633,21.8630993 118.537087,21.6641665 118.368651,21.4652338 C116.263197,18.8990012 114.01036,16.432235 112.052288,13.7665361 C111.799633,13.4283504 111.568033,13.0901647 111.336433,12.751979 C111.357488,12.7320857 111.336433,12.7320857 111.294324,12.751979 L111.294324,12.751979 Z M7.45330887,0.517614467 C8.82185428,0.537507743 10.3798906,0.418148089 11.9168724,0.696653948 C16.190945,1.45259842 19.475454,3.48171255 20.9703266,7.44047441 C22.5073084,11.5185959 22.0019993,15.3977847 18.9490903,18.7796416 C17.0752359,20.8684355 14.5486905,21.9625657 11.7273815,22.3405379 C9.11661791,22.6986169 6.48479981,22.4598976 3.87403625,22.4996841 C3.74770898,22.4996841 3.62138171,22.4598976 3.49505444,22.4400043 C1.43170905,22.1018186 0,20.5103565 0,18.5409223 L0,4.49626961 C0,2.288116 1.78963631,0.557401018 4.14774533,0.517614467 C5.17941803,0.497721191 6.23214527,0.517614467 7.45330887,0.517614467 Z M7.72701795,11.5185959 L7.72701795,15.1391721 C7.72701795,15.3182116 7.70596341,15.4773578 8.00072703,15.4773578 C8.82185428,15.4574645 9.62192698,15.5171443 10.4430542,15.417678 C12.5906178,15.1789587 14.0223269,13.6471764 14.0433814,11.5384892 C14.0644359,9.46958853 12.6327269,7.87812648 10.4851633,7.61951389 C9.68509062,7.52004751 8.88501792,7.59962062 8.08494521,7.55983407 C7.79018158,7.53994079 7.70596341,7.63940717 7.70596341,7.91791303 C7.72701795,9.11150957 7.72701795,10.3249994 7.72701795,11.5185959 Z M79.0177067,6.92324924 C80.4073067,5.23232081 81.8390157,3.62096548 83.1865066,1.94993032 C83.9655248,0.995053084 84.8919247,0.31868171 86.1973065,0.17942878 C88.4711974,-0.0393972526 90.66087,1.94993032 90.4924337,4.09840409 C90.4082155,5.09306788 89.9871246,5.92858546 89.3344337,6.68452993 C88.0079974,8.17652561 86.6605065,9.64862801 85.3130156,11.1207304 C85.1235247,11.3395564 85.1235247,11.4589161 85.3130156,11.6578489 C86.7657792,13.1697378 88.1764337,14.7214133 89.6081428,16.2333023 C90.3871609,17.0688198 90.8293064,18.0038038 90.7871973,19.1178272 C90.7029791,21.5050203 88.1553792,23.355095 85.8183247,22.6986169 C85.018252,22.4797908 84.3655611,22.0222455 83.8391975,21.405554 C82.3232703,19.6549457 80.7652339,17.9242307 79.2914158,16.1338359 C79.2282522,16.0542628 79.1650885,15.9746897 79.0808704,15.8752233 C78.9334885,15.9547964 78.9966522,16.0741561 78.9966522,16.1537292 C78.9966522,17.2080728 79.0177067,18.2425231 78.9755976,19.2968667 C78.912434,21.4254472 77.3122886,22.9174429 75.1226159,22.8977462 C72.9118887,22.8977462 71.2696342,21.405554 71.2696342,19.2968667 C71.2485797,14.0649352 71.2485797,8.81311043 71.2696342,3.58117892 C71.2906888,1.4724917 72.9539978,-0.0195039769 75.1436705,0.000192727916 C77.3333431,0.0202825745 78.912434,1.4724917 78.9755976,3.58117892 C79.0387613,4.73498892 79.0177067,5.82911908 79.0177067,6.92324924 L79.0177067,6.92324924 Z M44.1092714,9.40990871 C44.0882169,10.8422246 44.172435,12.6326194 44.0671623,14.4031209 C43.8145078,18.7995348 40.3405079,22.2808581 35.708508,22.8378698 C33.6451626,23.0765891 31.6449809,22.9771227 29.7079627,22.2211783 C26.2550174,20.8883288 24.3601084,18.4016693 23.8337447,14.9601326 C23.7705811,14.5224806 23.7495266,14.0649352 23.728472,13.6073899 C23.728472,10.3249994 23.7074175,7.06250217 23.728472,3.78011168 C23.7495266,1.59185135 25.3707265,0.0401758502 27.6025083,0.0600691259 C29.8553446,0.0799624016 31.45549,1.63163791 31.45549,3.85968478 L31.45549,13.1299513 C31.45549,14.1644016 31.8344718,14.9999192 32.8450899,15.4773578 C34.4241808,16.2333023 36.1927626,15.1789587 36.3611989,13.4482437 C36.3822535,13.2294176 36.3822535,12.9906983 36.3822535,12.7718723 L36.3822535,3.74032513 C36.3822535,1.77089084 37.792908,0.278895159 39.8351988,0.0799624016 C41.8564351,-0.118970355 43.5829078,1.05473291 44.0039987,2.9445941 C44.0671623,3.24299324 44.0882169,3.54139237 44.0882169,3.85968478 C44.1092714,5.59039977 44.1092714,7.32111476 44.1092714,9.40990871 L44.1092714,9.40990871 Z M93.2084699,11.4788094 C93.2084699,8.87279026 93.1874154,6.28666442 93.2084699,3.6806453 C93.2295245,2.16875635 93.9032699,0.995053084 95.3981426,0.398254813 C96.9351244,-0.218436734 98.4299971,-0.0592905283 99.7143243,1.01494636 C100.493342,1.65153118 100.893379,2.52683531 100.893379,3.48171255 C100.914433,8.83300371 100.935488,14.1644016 100.893379,19.5156928 C100.872324,21.5249136 99.124797,23.0169093 97.0193426,22.9572295 C94.8086153,22.8975496 93.2295245,21.4453405 93.2084699,19.3963331 C93.1874154,16.7505274 93.2084699,14.124615 93.2084699,11.4788094 Z" id="Shape"></path>
                    <path d="M127.780033,5.33178719 C127.758978,4.43658978 127.780033,3.56128565 127.990578,2.68598152 C128.411669,0.855800154 130.032869,-0.178650183 132.033051,0.119748953 C133.949014,0.398254813 135.170178,1.89025049 134.980687,3.72043185 C134.812251,5.23232081 134.370105,6.68452993 133.738469,8.07705923 C133.359487,8.89268354 132.791014,9.54916164 131.864614,9.84756077 C130.348687,10.3249994 128.769596,9.62873474 128.201123,8.19641889 C127.822142,7.28132821 127.801087,6.3065577 127.780033,5.33178719 L127.780033,5.33178719 Z" id="Path"></path>
                </g>
            </g>
        </g>
    </g>
</svg>