<?xml version="1.0" encoding="UTF-8"?>
<svg width="160px" height="84px" viewBox="0 0 160 84" version="1.1" xmlns="http://www.w3.org/2000/svg" xmlns:xlink="http://www.w3.org/1999/xlink">
    <title>4</title>
    <defs>
        <rect id="path-1" x="0" y="0" width="160" height="84"></rect>
    </defs>
    <g id="ðŸ”-Enterprise:-Homepage" stroke="none" stroke-width="1" fill="none" fill-rule="evenodd">
        <g id="Logos" transform="translate(-736.000000, -244.000000)">
            <g id="Business-logos" transform="translate(160.000000, 244.000000)">
                <g id="4" transform="translate(576.000000, 0.000000)">
                    <mask id="mask-2" fill="white">
                        <use xlink:href="#path-1"></use>
                    </mask>
                    <g id="Rectangle"></g>
                    <g id="mtv-logo-2010" mask="url(#mask-2)" fill="#222222" fill-rule="nonzero">
                        <g transform="translate(43.000000, 19.000000)">
                            <path d="M0.00988451087,0.022794636 C8.55779552,0.0195666603 17.1024457,0.0163258879 25.6503567,0.0260803493 C28.568784,3.09509058 31.5036175,6.14777493 34.438502,9.20040793 C37.3469939,6.12492895 40.3015965,3.08857049 43.216712,0.0228459752 C51.8107337,0.0195666603 60.4080163,0.0195666603 68.9986753,0.0228459752 C69.0019361,6.32386862 68.9953635,12.6216569 69.0019361,18.9259653 C68.9822181,19.2129518 69.0644531,19.5325901 68.922962,19.8000677 C66.7909647,23.2538657 64.9418478,26.8870945 63.5533798,30.6964171 C63.3757133,31.1073879 63.2111923,31.5802739 62.8097996,31.8314256 C62.4676121,31.9749189 61.9642154,31.9129524 61.7799762,31.5541936 C61.536481,31.1008678 61.5496773,30.5724841 61.4805876,30.0767521 C61.2568614,28.1557906 61.0528533,26.2250233 60.7336957,24.3138676 C60.5428838,23.3386782 60.3257303,22.2852477 59.5919837,21.5514042 C58.9043478,20.8860986 57.8514946,20.8208464 56.9565387,21.0361119 C56.1339844,21.2154913 55.3608016,21.7014689 54.9462636,22.4417812 C54.4066916,23.3582385 54.4132133,24.4704011 54.607337,25.4846597 C54.9462636,27.2621793 55.5516135,28.9743953 56.1702106,30.6736224 C57.3941576,33.8763201 58.6345618,37.0790178 59.8617697,40.2784811 C60.1677819,41.0970858 60.6514606,41.9417708 61.4970448,42.3103354 C62.2241168,42.6136478 63.0467221,42.6103621 63.8165931,42.4995206 C64.4845618,42.3983823 65.0603091,41.9580967 65.3926121,41.387358 C66.0111583,40.343682 66.2513417,39.1402382 66.6165591,37.9954751 C67.3469939,35.6603084 68.0477751,33.3055814 68.9887908,31.0421357 C69.0081221,36.0255873 68.9887908,41.0122733 68.9954144,45.9957249 C63.6323539,45.9990106 58.2660326,45.9957249 52.8997622,45.9990106 C52.6826087,44.1464844 52.5246603,42.277735 52.6233526,40.4154543 C52.6463825,38.5955798 52.7220958,36.7855112 52.7023268,34.9656367 C52.7582711,32.3271576 52.4127717,29.7114732 52.261447,27.0795141 C52.0903533,25.037854 52.3140795,22.9831538 52.1298404,20.941545 C53.653176,19.9957216 55.2423404,19.1640768 56.7755605,18.2345793 C57.8054348,17.6018741 58.9109205,17.0572158 59.79268,16.2157652 C60.2796705,15.7461135 60.6580333,15.0285959 60.3652174,14.3567702 C59.7466712,13.1108688 58.1179688,12.4357574 56.805214,12.9837014 C55.7293308,13.4729133 55.0910156,14.539384 54.1105129,15.159049 C52.8865659,15.9091671 51.6527344,16.646245 50.3959239,17.3474881 C49.4450238,16.8549904 48.3033628,16.6918856 47.2768003,17.0115239 C46.7174592,17.1909033 46.2009171,17.5692224 45.9771909,18.1204521 C45.7139776,18.7270256 45.934392,19.3923825 45.8159307,20.0152819 C45.7402683,20.4001724 45.4375679,20.6741187 45.1085768,20.8567325 C43.7201087,21.6721028 42.3184952,22.4678615 40.933288,23.2897519 C39.5086447,24.1148766 38.1267493,25.0639857 36.5244395,25.5238316 C35.5505605,25.8075837 34.4088485,26.1337421 33.9383662,27.118686 C33.4876019,28.0774982 34.0206012,29.179855 34.7740659,29.8191316 C35.4222147,30.4322765 36.412551,30.5627296 37.241678,30.2724574 C38.3241848,29.9202186 39.2158288,29.1766206 40.1140455,28.5112637 C41.2327276,27.663293 42.3777004,26.8544941 43.5226732,26.0423582 C44.1412194,25.6216842 44.7630774,25.1618384 45.4902004,24.936767 C45.9837636,24.7541532 46.6056216,24.9661331 46.8128906,25.4618651 C47.303142,26.5511817 47.1484545,27.7839916 47.1715353,28.9450292 C47.201087,32.8196039 46.8424932,36.6811385 46.7075747,40.5524275 C46.6977412,42.3690162 46.681284,44.1823706 46.7668308,45.9990106 C45.3454484,45.9924905 43.9273777,46.0120508 42.5059952,45.9859705 C42.5191916,41.7004249 42.5158798,37.4116963 42.5093071,33.126202 C39.8113451,35.3733219 37.116644,37.6301962 34.4220448,39.8773161 C31.7207711,37.6334819 29.0293818,35.3765563 26.3347317,33.1327221 C26.328108,37.4182164 26.3314198,41.7102307 26.3347317,45.9957763 C17.5564708,46.002245 8.77494905,45.9990106 0,45.9957763 C0.00988451087,30.6703367 0.00988451087,15.3482342 0.00988451087,0.0228459752 L0.00988451087,0.022794636 Z" id="Path"></path>
                            <path d="M28.0620754,0.0293660625 C30.6646569,1.14804876 33.2507303,2.28952609 35.849949,3.41144316 C36.24482,3.57449669 36.4981488,3.92673542 36.7942765,4.21377328 C36.0210428,5.05522392 35.2051121,5.85750269 34.4318784,6.7021877 C32.3130265,4.47467945 30.1645211,2.27648592 28.0620754,0.0293660625 Z M70.7326427,0 C72.1572351,0.847970726 73.5852412,1.68942136 75,2.54714655 C74.9901155,5.66831748 74.9966882,8.79277413 74.9966882,11.9172308 C73.4798743,13.570766 72.0618546,15.3155824 70.7392154,17.1289368 C70.7227582,11.4214988 70.7359035,5.71072372 70.7325917,0 L70.7326427,0 Z M71.0550611,26.6620745 C72.219803,24.5062872 73.5227242,22.4157008 74.9901155,20.4490474 C74.9967391,28.9646408 74.9901155,37.4801829 74.9933764,45.9924905 C73.5720448,45.9957249 72.1506624,45.9957249 70.7292799,45.9924905 C70.726019,39.8838361 70.7326427,33.7719474 70.726019,27.6600586 C70.6931046,27.2980654 70.8904891,26.9751927 71.0550102,26.6620232 L71.0550611,26.6620745 Z M28.0752208,36.8376719 C29.253108,37.8063412 30.4112772,38.8075597 31.6023098,39.7599031 C31.6253397,41.8374494 31.6089334,43.9149443 31.6121943,45.9957249 L28.0752208,45.9957249 C28.0752208,42.9430919 28.071909,39.8871219 28.0752208,36.8376719 L28.0752208,36.8376719 Z M36.9884001,40.0045348 C38.2419497,38.9543387 39.4987602,37.9074283 40.7556726,36.8605179 C40.745788,37.7052029 40.7688179,38.5499392 40.7392154,39.3881042 C40.476002,39.5935639 40.2193614,39.7990237 39.9660326,40.0110549 C38.9690727,40.0142892 37.9819973,40.024095 36.9884001,40.0045348 Z" id="Shape"></path>
                        </g>
                    </g>
                </g>
            </g>
        </g>
    </g>
</svg>