<?xml version="1.0" encoding="UTF-8"?>
<svg width="160px" height="84px" viewBox="0 0 160 84" version="1.1" xmlns="http://www.w3.org/2000/svg" xmlns:xlink="http://www.w3.org/1999/xlink">
    <title>5</title>
    <defs>
        <rect id="path-1" x="0" y="0" width="160" height="84"></rect>
    </defs>
    <g id="ðŸ”-Enterprise:-Homepage" stroke="none" stroke-width="1" fill="none" fill-rule="evenodd">
        <g id="Logos" transform="translate(-928.000000, -244.000000)">
            <g id="Business-logos" transform="translate(160.000000, 244.000000)">
                <g id="5" transform="translate(768.000000, 0.000000)">
                    <mask id="mask-2" fill="white">
                        <use xlink:href="#path-1"></use>
                    </mask>
                    <g id="Rectangle"></g>
                    <g id="star-trek-the-original-series-seeklogo.com-2" mask="url(#mask-2)">
                        <g transform="translate(15.000000, 27.000000)">
                            <g id="Group" transform="translate(124.740726, 0.224215)" fill="#222222" fill-rule="nonzero">
                                <polygon id="Path" points="1.4303466 2.69058296 0.858207962 2.69058296 0.858207962 0.448430493 0 0.448430493 0 0 2.2445439 0 2.2445439 0.448430493 1.4303466 0.448430493"></polygon>
                                <polygon id="Path" points="3.1247572 2.69058296 2.55261855 2.69058296 2.55261855 0 3.41082652 0 3.91694916 2.15246637 4.40106647 0 5.25927444 0 5.25927444 2.69058296 4.68713579 2.69058296 4.68713579 0.582959641 4.18101315 2.69058296 3.63087984 2.69058296 3.1247572 0.582959641"></polygon>
                            </g>
                            <g id="Group" fill="#222222" fill-rule="nonzero">
                                <path d="M7.69436269,0 L12.6455625,0 C14.9121117,0 16.0343837,1.47982063 15.6382877,4.10313901 L15.528261,4.84304933 L10.6430772,7.44394619 L11.0611785,4.77578475 L7.82639468,4.77578475 L6.66011207,12.3318386 L15.0441437,7.91479821 L12.2494665,25.896861 C11.8313652,28.5426009 10.2469812,30 7.98043201,30 L3.02923223,30 C0.762682991,30 -0.315578295,28.5201794 0.080517688,25.896861 L0.520624335,23.0941704 L5.36179746,20.5381166 L4.63562149,25.2466368 L7.87040535,25.2466368 L9.34476262,15.8295964 L0.982736315,20.2690583 L3.49134421,4.10313901 C3.88744019,1.47982063 5.44981879,0 7.69436269,0 Z" id="Path"></path>
                                <polygon id="Path" points="20.5674821 4.79820628 16.2104263 4.79820628 16.9586076 0 30.1177964 0 29.3696151 4.79820628 25.0125593 4.79820628 21.0956101 29.9775785 16.650533 29.9775785"></polygon>
                                <path d="M33.6826602,30 L35.6631401,17.2869955 L32.0982763,19.1479821 L30.4038657,30 L25.9587886,30 L29.9857644,4.12556054 C30.4038657,1.47982063 31.944239,0.0224215247 34.2107882,0.0224215247 L39.161988,0.0224215247 C41.4285372,0.0224215247 42.5508092,1.50224215 42.1547132,4.12556054 L38.1277374,30 L33.6826602,30 Z M37.5996094,4.75336323 L34.3208149,4.75336323 L32.9124736,13.7892377 L36.4553321,12.0179372 L37.5996094,4.75336323 Z" id="Shape"></path>
                                <path d="M52.2991714,16.7264574 L55.2918966,30 L50.6487715,30 L48.1621689,18.9013453 L47.4359929,19.2825112 L45.7635877,30 L41.3185105,30 L46.0276517,0 L54.5657206,0 C56.8322699,0 57.9545418,1.47982063 57.5584458,4.10313901 L55.8860406,14.8654709 L52.2991714,16.7264574 Z M52.9813367,4.75336323 L49.7025422,4.75336323 L48.2721956,13.9237668 L51.8370594,12.1076233 L52.9813367,4.75336323 Z" id="Shape"></path>
                                <polygon id="Path" points="71.0697199 4.79820628 66.7126641 4.79820628 67.4608454 0 80.6200342 0 79.8718529 4.79820628 75.5147971 4.79820628 71.5978479 30 67.1527708 30"></polygon>
                                <path d="M87.7937725,16.7264574 L90.7864977,30 L86.1433726,30 L83.65677,18.9013453 L82.9305941,19.2825112 L81.2581888,30 L76.8131117,30 L81.5002475,0 L90.0383164,0 C92.3048657,0 93.4271376,1.47982063 93.0310416,4.10313901 L91.3586364,14.8654709 L87.7937725,16.7264574 Z M88.4759378,4.75336323 L85.1971433,4.75336323 L83.7667967,13.9237668 L87.3316605,12.1076233 L88.4759378,4.75336323 Z" id="Shape"></path>
                                <polygon id="Path" points="92.1728337 30 96.8159588 0 107.532556 0 106.784374 4.79820628 100.512855 4.79820628 99.3025613 12.5336323 106.124214 9.03587444 105.288012 14.3946188 98.4663587 17.9372197 97.3440868 25.2017937 103.615606 25.2017937 102.867425 30 92.1728337 30"></polygon>
                                <polygon id="Path" points="105.111969 30 109.755094 1.59314515e-15 114.156161 1.59314515e-15 112.439745 11.0089686 118.601238 0 123.266368 0 116.180651 12.5784753 119.899552 30 115.256427 30 113.011883 17.3766816 110.833356 21.4349776 109.513036 30"></polygon>
                            </g>
                        </g>
                    </g>
                </g>
            </g>
        </g>
    </g>
</svg>