<svg width="160" height="84" viewBox="0 0 160 84" fill="none" xmlns="http://www.w3.org/2000/svg">
<g clip-path="url(#clip0_407_17145)">
<path d="M22.7337 40.4509C18.5343 37.9783 11.6078 37.751 7.59892 38.9573C6.95525 39.1511 6.27458 38.7907 6.07949 38.1524C5.8844 37.5139 6.24736 36.8393 6.89159 36.6453C11.4933 35.26 19.1432 35.5276 23.9773 38.3729C24.5566 38.7137 24.7464 39.4553 24.4032 40.0284C24.0598 40.6027 23.3111 40.7917 22.7337 40.4509ZM21.1989 44.4449C17.6983 42.3111 12.3596 41.6931 8.21762 42.9395C7.6806 43.1003 7.11335 42.8002 6.95018 42.2687C6.78851 41.7361 7.09119 41.1749 7.62765 41.013C12.3591 39.589 18.2412 40.2789 22.2619 42.7286C22.7396 43.0204 22.89 43.6404 22.5961 44.1132C22.3015 44.5872 21.6766 44.7358 21.1989 44.4449ZM19.8856 47.8982C16.8263 46.0446 12.9761 45.6259 8.44107 46.653C8.00413 46.7522 7.56888 46.4806 7.46917 46.0475C7.3689 45.6143 7.64173 45.1823 8.07961 45.0836C13.0424 43.9588 17.2989 44.4428 20.7329 46.5232C21.1155 46.755 21.2363 47.251 21.0021 47.6306C20.7682 48.011 20.2683 48.1304 19.8856 47.8982ZM2 41.9165C2 49.0507 7.83288 54.8333 15.0275 54.8333C22.2226 54.8333 28.055 49.0507 28.055 41.9165C28.055 34.783 22.2226 29 15.0275 29C7.83288 29 2 34.783 2 41.9165Z" fill="#191414"/>
<path d="M85.5184 46.4421V45.976H85.887C86.0712 45.976 86.1808 46.0572 86.1808 46.2091C86.1808 46.3531 86.0712 46.4421 85.887 46.4421H85.5184ZM85.8982 45.7233H85.2354V47.1972H85.5184V46.6871H85.8282L86.1887 47.1972H86.5265L86.1258 46.641C86.3301 46.5828 86.4709 46.435 86.4709 46.1934C86.4709 45.8985 86.2437 45.7233 85.8982 45.7233ZM84.5376 46.5045C84.5376 45.8042 85.0865 45.2327 85.8118 45.2327C86.5336 45.2327 87.0793 45.7967 87.0793 46.4967C87.0793 47.1972 86.5297 47.7684 85.8045 47.7684C85.0827 47.7684 84.5376 47.2043 84.5376 46.5045ZM84.3884 46.5045C84.3884 47.2748 85.0082 47.909 85.8045 47.909C86.6007 47.909 87.228 47.2666 87.228 46.4967C87.228 45.7271 86.6082 45.0929 85.8118 45.0929C85.0161 45.0929 84.3884 45.7345 84.3884 46.5045ZM68.3568 36.3721C68.3568 37.1635 69.0042 37.8048 69.802 37.8048C70.5995 37.8048 71.2464 37.1635 71.2464 36.3721C71.2464 35.5812 70.5995 34.9405 69.802 34.9405C69.0042 34.9405 68.3568 35.5812 68.3568 36.3721ZM68.7847 38.9076C68.7034 38.9076 68.6371 38.9733 68.6371 39.0538V47.7662C68.6371 47.8469 68.7034 47.9126 68.7847 47.9126H70.7987C70.88 47.9126 70.9463 47.8469 70.9463 47.7662V39.0538C70.9463 38.9733 70.88 38.9076 70.7987 38.9076H68.7847ZM85.5903 38.9162H83.4935C83.4307 38.9162 83.3746 38.9559 83.3541 39.0142L81.206 45.0974L78.8537 39.0105C78.8323 38.9535 78.7772 38.9162 78.716 38.9162H75.2755V38.6401C75.2755 37.8285 75.5895 37.4666 76.2936 37.4666C76.7131 37.4666 77.0503 37.5493 77.4283 37.6739C77.4747 37.6885 77.5233 37.6814 77.5612 37.6537C77.6001 37.6263 77.6219 37.5818 77.6219 37.5351V35.8522C77.6219 35.7881 77.5802 35.7308 77.5179 35.7123C77.1187 35.5943 76.6083 35.4736 75.8439 35.4736C73.9837 35.4736 73.0003 36.5123 73.0003 38.4762V38.899H72.0327C71.9516 38.899 71.885 38.9643 71.885 39.045V40.77C71.885 40.8505 71.9516 40.9162 72.0327 40.9162H73.0003V47.766C73.0003 47.8467 73.0658 47.9124 73.1471 47.9124H75.1614C75.2427 47.9124 75.3086 47.8467 75.3086 47.766V40.9162H77.1891L80.0697 47.7643C79.7428 48.4839 79.4213 48.6273 78.9821 48.6273C78.6272 48.6273 78.2537 48.5218 77.8718 48.3148C77.8356 48.2952 77.7931 48.2919 77.7543 48.3036C77.716 48.3173 77.6835 48.3457 77.6671 48.3826L76.9844 49.8677C76.9519 49.9375 76.9801 50.0202 77.0481 50.0565C77.7607 50.4393 78.4041 50.6025 79.1988 50.6025C80.6861 50.6025 81.5082 49.9155 82.2328 48.068L85.727 39.1154C85.7444 39.0708 85.7394 39.0196 85.7114 38.9796C85.6836 38.9402 85.6393 38.9162 85.5903 38.9162ZM65.3372 38.9076V36.6608C65.3372 36.5803 65.2715 36.5146 65.1902 36.5146H63.1766C63.0949 36.5146 63.029 36.5803 63.029 36.6608V38.9076H62.0603C61.9793 38.9076 61.9136 38.9733 61.9136 39.0538V40.77C61.9136 40.8507 61.9793 40.9164 62.0603 40.9164H63.029V45.3571C63.029 47.1516 63.9295 48.0616 65.7062 48.0616C66.4287 48.0616 67.0281 47.9139 67.5929 47.5961C67.6391 47.5707 67.6675 47.5219 67.6675 47.4694V45.8352C67.6675 45.7848 67.641 45.7373 67.5976 45.7108C67.5537 45.6834 67.4988 45.6821 67.4542 45.7041C67.066 45.8979 66.6909 45.987 66.2716 45.987C65.6256 45.987 65.3372 45.6963 65.3372 45.0441V40.9164H67.5537C67.635 40.9164 67.7005 40.8507 67.7005 40.77V39.0538C67.7005 38.9733 67.635 38.9076 67.5537 38.9076H65.3372ZM54.4008 43.4099C54.4008 41.8786 55.4517 40.7672 56.8996 40.7672C58.3528 40.7672 59.4488 41.9172 59.4488 43.4433C59.4488 44.9747 58.3907 46.0851 56.933 46.0851C55.4893 46.0851 54.4008 44.9349 54.4008 43.4099ZM52.0919 43.4433C52.0919 46.0606 54.2038 48.1111 56.8996 48.1111C59.6238 48.1111 61.7568 46.0457 61.7568 43.4099C61.7568 40.7827 59.6384 38.7247 56.933 38.7247C54.2186 38.7247 52.0919 40.7973 52.0919 43.4433ZM44.3401 43.4099C44.3401 41.8937 45.3788 40.7513 46.7561 40.7513C48.1268 40.7513 49.1222 41.8688 49.1222 43.4099C49.1222 44.976 48.149 46.0688 46.7561 46.0688C45.3788 46.0688 44.3401 44.9263 44.3401 43.4099ZM44.3904 40.0755V39.0538C44.3904 38.9731 44.3245 38.9074 44.2432 38.9074H42.229C42.1477 38.9074 42.0817 38.9731 42.0817 39.0538V50.4064C42.0817 50.4869 42.1477 50.5527 42.229 50.5527H44.2432C44.3245 50.5527 44.3904 50.4869 44.3904 50.4064V46.8229C45.1578 47.6769 46.088 48.0939 47.2225 48.0939C49.3302 48.0939 51.4639 46.4853 51.4639 43.4099C51.4639 40.334 49.3302 38.7247 47.2225 38.7247C46.088 38.7247 45.1578 39.1679 44.3904 40.0755ZM34.7933 39.2349C34.7933 38.4941 35.4972 37.9955 36.5433 37.9955C37.5578 37.9955 38.5633 38.3742 39.618 39.1537C39.6497 39.1774 39.6897 39.1869 39.729 39.1804C39.7684 39.1746 39.8032 39.1533 39.8264 39.121L40.9249 37.5858C40.97 37.5228 40.9578 37.4358 40.8965 37.3874C39.6419 36.3891 38.2285 35.9035 36.5769 35.9035C34.1483 35.9035 32.452 37.3484 32.452 39.4163C32.452 41.6333 33.9153 42.4183 36.444 43.0243C38.5964 43.516 38.9597 43.9277 38.9597 44.6639C38.9597 45.48 38.2251 45.9872 37.0429 45.9872C35.7302 45.9872 34.659 45.5485 33.4612 44.5199C33.4314 44.4945 33.3908 44.4828 33.3529 44.4852C33.3133 44.4886 33.277 44.5065 33.2521 44.5365L32.0203 45.9896C31.9688 46.0498 31.9752 46.14 32.0351 46.1921C33.4291 47.4259 35.1433 48.0777 36.993 48.0777C39.6101 48.0777 41.3014 46.6599 41.3014 44.4654C41.3014 42.6108 40.1838 41.5854 37.4433 40.9243C35.1942 40.3926 34.7933 40.0191 34.7933 39.2349Z" fill="#191414"/>
<path d="M135.056 35.8571C135.056 36.4042 135.475 36.8005 136.008 36.8005C136.541 36.8005 136.959 36.4042 136.959 35.8571C136.959 35.3097 136.541 34.9136 136.008 34.9136C135.475 34.9136 135.056 35.3097 135.056 35.8571ZM105.935 38.9136H104.812V47.9136H105.954V43.0269C105.954 40.9702 107.096 39.9889 108.637 39.9889C108.942 39.9889 109.227 40.0268 109.436 40.0834V38.8947C109.284 38.8381 109.037 38.8004 108.732 38.8004C107.533 38.8004 106.487 39.3476 105.935 40.5928V38.9136ZM95.7717 43.423C95.7717 41.0645 97.3324 39.7061 99.1211 39.7061C100.91 39.7061 102.47 41.0645 102.47 43.423C102.47 45.7624 100.91 47.1399 99.1211 47.1399C97.3324 47.1399 95.7717 45.7624 95.7717 43.423ZM94.6111 43.423C94.6111 46.2343 96.5904 48.1589 99.1211 48.1589C101.652 48.1589 103.631 46.2343 103.631 43.423C103.631 40.5926 101.652 38.687 99.1211 38.687C96.5712 38.687 94.6111 40.5926 94.6111 43.423ZM94.8197 38.9134H92.289V37.8758C92.289 36.4418 93.1073 35.9702 94.0206 35.9702C94.4203 35.9702 94.7056 36.0457 94.877 36.1209V35.1022C94.6676 35.0077 94.3249 34.9136 93.8493 34.9136C92.3269 34.9136 91.1471 35.9136 91.1471 37.8192V38.9134H89.2822V39.9323H91.1471V47.9134H92.289V39.9323H94.8197V38.9134ZM153.003 42.6958C152.071 42.4881 151.576 42.0353 151.576 41.2618C151.576 40.3183 152.489 39.6768 153.517 39.6768C154.963 39.6768 155.591 40.5256 155.762 41.3936L156.771 41.0162C156.524 39.9409 155.629 38.6956 153.517 38.6956C151.861 38.6956 150.453 39.8845 150.453 41.337C150.453 42.6388 151.347 43.4316 152.679 43.7334L154.145 44.0729C155.115 44.2994 155.686 44.7521 155.686 45.5824C155.686 46.5258 154.792 47.1862 153.669 47.1862C152.185 47.1862 151.347 46.2991 151.176 45.205L150.13 45.5633C150.301 46.7522 151.424 48.1675 153.65 48.1675C155.667 48.1675 156.809 46.8467 156.809 45.5069C156.809 44.2049 155.953 43.356 154.449 43.0163L153.003 42.6958ZM147.351 36.0731H146.247V37.6013C146.247 38.5257 145.866 38.9222 144.972 38.9222H144.287V39.9411H146.209V45.4881C146.209 47.1296 147.122 48.0165 148.587 48.0165C149.139 48.0165 149.558 47.922 149.71 47.8465V46.8467C149.539 46.9219 149.216 46.9976 148.892 46.9976C147.865 46.9976 147.351 46.4694 147.351 45.3749V39.9411H149.71V38.9222H147.351V36.0731ZM140.325 42.6958C139.392 42.4881 138.897 42.0353 138.897 41.2618C138.897 40.3183 139.811 39.6768 140.838 39.6768C142.284 39.6768 142.913 40.5256 143.084 41.3936L144.092 41.0162C143.845 39.9409 142.951 38.6956 140.838 38.6956C139.183 38.6956 137.775 39.8845 137.775 41.337C137.775 42.6388 138.669 43.4316 140.001 43.7334L141.466 44.0729C142.437 44.2994 143.008 44.7521 143.008 45.5824C143.008 46.5258 142.113 47.1862 140.99 47.1862C139.506 47.1862 138.669 46.2991 138.498 45.205L137.451 45.5633C137.622 46.7522 138.745 48.1675 140.972 48.1675C142.989 48.1675 144.13 46.8467 144.13 45.5069C144.13 44.2049 143.274 43.356 141.771 43.0163L140.325 42.6958ZM135.437 47.9221H136.579V38.9222H135.437V47.9221ZM131.897 36.0731H130.793V37.6013C130.793 38.5257 130.412 38.9222 129.518 38.9222H128.833V39.9411H130.755V45.4881C130.755 47.1296 131.668 48.0165 133.133 48.0165C133.685 48.0165 134.104 47.922 134.256 47.8465V46.8467C134.085 46.9219 133.761 46.9976 133.438 46.9976C132.41 46.9976 131.897 46.4694 131.897 45.3749V39.9411H134.256V38.9222H131.897V36.0731ZM124.659 38.9222H123.536V47.922H124.678V43.0355C124.678 40.9788 125.819 39.9975 127.361 39.9975C127.665 39.9975 127.951 40.0354 128.16 40.092V38.9031C128.008 38.8465 127.761 38.809 127.456 38.809C126.257 38.809 125.21 39.3562 124.659 40.6014V38.9222ZM114.954 43.1703L117.377 37.0993L119.816 43.1703H114.954ZM116.721 35.891L111.811 47.9171H113.054L114.532 44.227H120.239L121.735 47.9171H122.976L118.067 35.891H116.721Z" fill="#191414"/>
</g>
<defs>
<clipPath id="clip0_407_17145">
<rect width="155" height="25.8333" fill="white" transform="translate(2 29)"/>
</clipPath>
</defs>
</svg>
