<?xml version="1.0" encoding="UTF-8"?>
<svg width="160px" height="84px" viewBox="0 0 160 84" version="1.1" xmlns="http://www.w3.org/2000/svg" xmlns:xlink="http://www.w3.org/1999/xlink">
    <title>Group 15</title>
    <g id="ðŸ”-Enterprise:-Homepage" stroke="none" stroke-width="1" fill="none" fill-rule="evenodd">
        <g id="Logos" transform="translate(-160.000000, -244.000000)">
            <g id="Group-15" transform="translate(160.000000, 244.000000)">
                <rect id="Rectangle" x="0" y="0" width="160" height="84"></rect>
                <g id="coca-cola" transform="translate(18.000000, 22.000000)" fill="#222222" fill-rule="nonzero">
                    <path d="M46.9598854,34.8931437 C42.4095455,31.9649929 36.2341497,31.4511617 26.2750074,34.2113439 C15.6578023,36.7036926 12.1178678,38.3013793 7.46893309,35.0940953 C5.6829155,33.5185498 5.04258447,30.9817658 5.52073092,27.3276852 C6.62973106,21.3709078 9.62670648,15.6384449 14.9502129,9.27976443 C17.9215078,5.97200457 20.6778814,3.13333521 24.3173279,1.9934392 C27.1067193,1.27835106 26.8459399,3.46820352 26.5084248,3.78138861 C26.1522607,3.78138861 25.5539662,3.83742905 25.0915644,4.13885634 C24.7162928,4.42959472 23.6861685,5.3683865 23.6308331,6.63120498 C23.5510401,8.56437088 25.5536605,8.16200973 26.417473,7.10060087 C27.348544,5.90451173 28.7245908,3.61403081 27.6421883,1.47930258 C27.1884995,0.719473712 26.4046328,0.194342785 25.4313724,0.0155325744 C22.0987162,-0.174730041 18.9950444,1.41226784 16.1304458,3.16677623 C9.86593256,7.51395633 4.85471939,13.5376158 2.01916425,20.1311469 C0.38447817,24.1094068 -1.09398487,29.8081234 1.12202823,34.4463472 C2.83650729,37.6646256 6.39554936,39.3740879 10.6418505,39.0166202 C13.6200241,38.7040459 17.2212556,37.742502 19.6433241,37.1619414 C22.0655455,36.580312 34.4637238,32.3230714 38.5374459,39.7327772 C38.5374459,39.7327772 39.8920922,37.105901 43.2774852,37.0498606 C46.0607622,36.7933267 50.0760917,37.8547356 53,40 C52.0258225,38.5365354 49.2639459,36.3796658 46.9598854,34.8931437 Z" id="Path"></path>
                    <path d="M27.8598853,10.260063 C25.5069465,8.70271524 20.7778034,11.6800299 16.9899908,16.7870603 C13.526192,21.3680379 12.0305171,26.6922489 13.6583412,29.1543073 C16.079526,32.0513528 20.5746162,27.8374542 22.4861268,25.5819365 L22.7327434,25.3182842 C24.0326761,23.9097396 25.0368241,22.2148546 26.0090205,20.5885035 C26.0090205,20.5885035 26.9024238,19.0998461 26.9450776,19.0309992 C27.4972504,18.9283548 28.1623395,18.7679729 28.9118055,18.5503228 C28.9011033,18.5844333 26.0443844,23.4284373 26.3358262,25.8327582 C26.4265625,26.5662904 26.3573858,29.2458424 28.9505817,30.058705 C32.4069355,30.6431211 35.166869,27.9402551 37.601703,25.5354649 C37.601703,25.5354649 38.0166082,25.1350576 38.2512816,24.9064547 C38.1918765,25.146167 38.1144793,25.4661486 38.1144793,25.4661486 C37.102576,29.0161441 38.466567,29.7610987 39.3197981,30.0358603 C41.8984142,30.7922372 44.9789492,27.0130128 44.989031,27.0130128 C44.908997,28.203438 44.6755644,29.1881049 45.9195043,29.9784358 C47.093492,30.40247 48.2817493,29.7559352 49.1850792,29.1489873 C52.4384009,26.836045 55.0593606,23.2156379 57.1762299,20.0863906 L55.8258882,20.0863906 C55.8099124,20.0863906 52.4939284,24.9350888 50.3406095,25.9889155 C50.3371972,25.9889155 49.9452475,26.1918573 49.7195701,26.0313189 C49.4399163,25.7908242 49.5501958,25.290589 49.7228273,24.9363405 C49.7336847,24.9133394 58.0370612,10.3852391 58.0370612,10.3852391 L54.1166341,10.3852391 C54.1166341,10.3852391 53.6883899,11.0841915 53.6534914,11.1300372 C53.6271235,11.1071926 53.5643061,10.9870235 53.5208768,10.9294425 C51.0919368,7.5399853 45.5914578,12.7535719 41.4503167,18.7995798 C39.8559951,21.1244139 37.8261396,23.7420036 35.7213684,25.6313811 C35.7213684,25.6313811 32.603143,28.5148137 31.2709484,26.4431484 C30.7839196,25.5727048 30.9337508,24.3001327 31.2084412,23.4644255 C32.7596436,19.0097193 35.4325634,14.9669991 38.4743222,12.5277854 C39.3328269,11.8526165 40.2662472,11.6573418 40.7292348,11.9436822 C41.1706628,12.2074909 41.2418559,12.8596587 40.9626674,13.306381 C40.2543041,13.2835364 39.6866208,13.500717 39.2253393,13.9817064 C38.3164256,14.9436851 38.0006324,15.8713968 38.2895925,16.7418404 C39.6934454,18.7571764 42.4932408,14.7720373 42.3578344,12.3444023 C42.3094417,11.4739587 41.849246,10.6496738 41.1621321,10.2484842 C40.1382858,9.63042697 38.5763811,9.79049597 37.5655636,10.2832206 C36.2122749,10.7983204 34.0704337,12.5960064 32.8201345,13.9932852 C31.2461317,15.7455948 28.5465339,17.6920839 27.702454,17.4741209 C27.9783853,16.7296358 30.2585799,12.0233255 27.8598853,10.260063 L27.8598853,10.260063 Z M46.7611025,17.2223604 C47.5237525,16.1575808 49.7434563,13.3060681 50.2846167,12.8252352 C52.1046155,11.2099935 52.8320567,11.9206811 52.8950292,12.4242021 C51.1964774,15.4930519 49.1917487,19.0087805 47.3069161,22.1694782 C47.3107937,22.1582124 46.7170528,23.0740324 46.7170528,23.0740324 C45.8846057,24.3561491 45.0464198,25.4556651 43.6791716,26.2226819 C43.484205,26.2804194 43.162828,26.3034205 42.9489385,26.1424127 C42.6914647,25.9706084 42.5898711,25.684268 42.6188757,25.3865052 C42.7009261,24.4019948 43.694527,21.3908826 46.7611025,17.2223604 L46.7611025,17.2223604 Z M25.4334269,19.0658921 C25.4334269,19.0658921 25.3991487,19.1693189 25.3823974,19.2031164 C25.3780545,19.2031164 23.6729882,22.0083139 23.6729882,22.0083139 C22.6440235,23.3941704 21.359291,25.1352141 19.7533366,25.9707649 C19.2773202,26.1309904 18.6192109,26.2344172 18.2838744,25.8110088 C17.5730295,24.9519875 17.9393868,23.7609365 18.2370328,22.7992707 L18.342504,22.4556622 C19.1958902,20.1198753 20.5497994,18.0582241 21.8678794,16.1458455 C21.8843205,16.1345796 21.9212354,16.1231573 21.9345744,16.1231573 C21.9378316,16.1345796 21.9431052,16.1345796 21.9452767,16.1575808 C22.7722951,17.7604613 24.3230321,18.5044771 25.4827502,18.848555 C25.4897299,18.848555 25.497331,18.8599773 25.497331,18.8829784 C25.4974851,18.9170889 25.4785624,18.9632477 25.4334269,19.0658921 L25.4334269,19.0658921 Z M27.0486875,15.7568606 C27.0410874,15.7797053 26.2892948,17.5202796 26.2892948,17.5202796 C26.1805664,17.6118147 26.0087103,17.5661254 25.8117273,17.5202796 L25.4742194,17.4626986 C24.4143888,17.1308253 23.6149791,16.4207636 23.3685176,15.5734776 C23.0286832,13.9244383 24.4250911,12.6304298 25.0402364,12.1611758 C25.630565,11.7485639 26.5483197,11.5310703 27.0812595,11.954948 C27.4099264,12.3444023 27.5344756,12.8480799 27.5344756,13.3980726 C27.5346306,14.1420883 27.3069369,14.977952 27.0486875,15.7568606 Z M76.6108524,21.0698058 C76.2327071,20.2455208 75.3354262,19.7186857 74.3790505,19.7757973 C71.2733885,20.0622942 68.2356624,22.6387323 66.6405654,26.3372181 C65.8036202,28.2383308 65.3468368,29.8069444 65.0473296,32.3032698 C66.0131667,31.1813786 67.9829968,29.3378468 70.2183661,28.3300224 C70.2183661,28.3300224 70.5225265,25.9368109 72.0735738,23.8067822 C72.6604901,22.9247598 73.8349431,21.5049493 75.1537986,21.8826684 C76.3062267,22.2721227 75.9010932,25.4900885 74.3695891,28.6041581 C73.2363939,30.8947252 71.5023231,33.1856052 69.7477784,34.7654846 C68.196576,36.09376 65.9014913,37.6969535 63.8935055,36.4603697 C62.6287816,35.7049316 61.983701,34.1241133 62.1198829,32.0859327 C62.724171,26.3032641 65.3336529,21.3791473 69.0677992,15.7681265 C72.918119,10.5578258 77.1624048,5.21014423 82.8800304,2.35831863 C84.0462628,1.76294958 85.1262571,1.62556876 86.0598324,1.99202193 C86.0598324,1.99202193 80.6925884,4.96933662 78.1341359,10.4775566 C77.4833165,11.8748353 76.5781253,13.7637434 77.4896758,15.4357838 C77.9660024,16.3059145 78.8116334,16.3747614 79.4926982,16.3289156 C82.6287607,15.5958528 84.6548938,12.6415392 86.3103266,9.93929912 C87.2701146,7.88953969 88.1231906,5.85120258 88.1231906,3.58379313 C88.1231906,3.30903148 88.1090761,2.94273478 88.0861206,2.66766019 C89.5842772,1.86637637 92.6567467,3.28603036 92.6567467,3.28603036 C95.0576128,4.08794006 100.16971,8.03881225 101.894164,8.7942503 C102.735297,7.80958343 104.11759,6.32108255 104.896061,5.57659741 L103.769225,4.87795803 C101.965357,3.76717618 100.058655,2.71350596 98.1820425,1.67157099 C93.9199196,-0.675638261 90.4505371,0.148646676 88.68498,0.790017966 C87.9910414,1.04177849 87.3569733,1.25942852 87.3569733,1.25942852 C86.0466485,-0.183383057 83.8975174,-0.0463151749 82.3140532,0.343295587 C76.6195383,1.9921784 71.3324834,6.01142805 65.6641811,12.9854607 C61.4968272,18.4478349 58.9118518,23.1658804 57.5340565,27.8263448 C56.4720545,30.963885 56.1492815,35.5786602 58.7413918,38.3156367 C60.9452748,40.6396883 63.867603,40.1361673 65.9311163,39.3006165 C70.4023203,37.0790528 74.4209287,32.2921604 76.4233308,26.7839405 C76.9066371,25.1466364 77.4428341,22.8335377 76.6108524,21.0698058 L76.6108524,21.0698058 Z M86.8922795,3.81302195 C86.3003999,10.6609396 81.0238921,14.6806587 79.7182205,15.0007967 C78.9270313,15.1608657 77.5769997,14.8061478 78.7823186,11.9322599 C80.5570269,8.06134395 83.587308,4.77515712 86.8383031,3.09169439 C86.9175616,3.37803483 86.9153901,3.56079201 86.8922795,3.81302195 L86.8922795,3.81302195 Z M118.192103,4.68299618 C115.353842,6.30934729 112.411505,7.36254811 108.849991,6.9962514 C107.863059,8.11876851 106.901875,9.27523965 106.016072,10.4659778 C111.014942,11.7485639 116.314406,8.89720768 119.270081,6.18354526 C122.396838,3.44656877 124,0 124,0 C124,0 121.656368,2.7022401 118.192103,4.68299618 Z M64.5528557,10.3855521 L60.8297218,10.3855521 L58.7296038,13.8278962 L62.4519622,13.8278962 L64.5528557,10.3855521 Z" id="Shape"></path>
                    <path d="M108.316939,35.1056667 C107.915099,35.376587 107.350562,35.1683055 107.561524,34.5474723 C108.08745,32.9666926 110.177763,29.7452718 110.177763,29.7452718 L116,19.5123235 L112.011964,19.5123235 C111.822332,19.8208887 111.417067,20.5293545 111.417067,20.5293545 C111.232573,20.2248006 110.680802,19.5476542 110.453648,19.40124 C109.479331,18.7910523 108.049928,19.0795608 107.063779,19.6326639 C102.776192,22.1170768 99.6478841,27.025578 97.1806419,30.8534838 C97.1806419,30.8534838 94.583553,35.1085981 93.142006,35.4250317 C92.0165126,35.5154413 92.1326584,34.0130373 92.1813898,33.6629701 C92.6165474,31.1333524 93.6271405,28.7285494 94.6452068,26.5493075 C96.7162143,25.1266676 99.0794546,23.2637051 101.227218,21.2200777 C105.888308,16.804818 109.817804,11.8028216 110.39215,10.6850441 C110.39215,10.6850441 109.770474,10.8093958 109.036389,10.8317668 C105.450504,15.7885585 98.1124551,22.9926306 95.8877802,24.065049 C96.873307,21.715942 103.240775,10.5042248 108.659149,5.14105281 L109.511871,4.32782918 C110.830422,3.05191201 112.196458,1.74220694 113.261076,1.52759983 C113.373485,1.5163372 113.518278,1.52759983 113.643299,1.78772031 C113.690785,2.78114603 113.317592,3.51522268 112.889441,4.350663 L112.289406,5.57026702 C112.289406,5.57026702 113.139326,5.41212735 113.697635,5.23099957 C114.345156,4.02342959 115.062582,2.66805688 114.798062,1.05379794 C114.709941,0.534328402 114.330365,0.139210642 113.834488,0.0488010333 C112.218099,-0.256061401 110.456606,0.929137597 109.039036,1.88923827 L108.981897,1.92287188 C101.695226,7.579798 95.5424566,15.732091 90.1630061,26.8652783 C89.7731547,27.1584153 88.26684,27.5087911 88.0108833,27.3392345 C88.5421025,26.2555535 89.2109529,24.7986628 89.5455338,23.2178832 C89.603451,22.7659894 89.6573203,22.3034502 89.6573203,21.851865 C89.6573203,20.8800388 89.4219148,19.9657601 88.5435037,19.3338185 C87.5134492,18.8256116 86.2403603,19.0628983 85.3818777,19.4464448 C81.5367663,21.0272244 78.6628581,24.9342772 76.5888924,28.151841 C75.473519,30.1960856 74.3614151,32.3855101 74.0534574,34.8926024 C73.8365792,36.8569286 74.2781201,38.1217374 75.4053261,38.7541419 C76.5642932,39.3408786 78.023122,38.7309995 78.5962221,38.4377082 C82.4917776,36.4051891 85.213731,32.3293512 87.359159,28.6031176 C87.4444779,28.5920093 88.6159003,28.5583757 89.5020959,28.3321974 C89.5137728,28.3321974 89.5187549,28.3321974 89.538372,28.3439228 C89.4876166,28.512708 89.0297281,29.8680807 89.0297281,29.8680807 C87.6699191,33.8195669 87.0410814,36.5071699 88.3255357,38.0990579 C90.1609821,40.3460298 93.1997675,38.0203738 95.6716805,34.948607 C95.1410841,38.6293272 97.066053,39.2055728 98.5336005,38.9235442 C100.219272,38.4721132 102.097689,36.6876806 102.969405,35.7734019 C102.689472,36.8458203 102.765449,38.765713 104.29901,38.957332 C105.349927,39.1498767 106.136636,38.583351 107.046653,38.0976694 C110.311346,36.3360705 114.219357,30.4660801 115.233998,28.7689714 L113.903615,28.7689714 C112.461134,30.9293908 110.625687,33.7614024 108.316939,35.1056667 L108.316939,35.1056667 Z M79.0130081,34.7125546 C78.8059385,34.4075379 78.7372786,34.0742875 78.7304282,33.7138833 C78.6907268,31.4997736 81.0946026,27.5350191 82.7911722,25.3750626 L82.7947531,25.3750626 C83.5056402,26.9178887 85.1158011,27.9096173 86.0877827,28.3275689 C84.880707,30.9924924 80.7404046,36.6997146 79.0130081,34.7125546 L79.0130081,34.7125546 Z M86.7692441,27.1361986 C86.6543438,27.2158084 84.6239718,26.5378906 84.2314737,24.6749281 C83.8986054,23.0710061 85.0132004,21.8177685 86.0915193,21.1861355 C86.5543899,20.8244971 87.2515762,20.7007624 87.7630226,20.880656 C88.2377258,21.1973981 88.3663269,21.7623811 88.3663269,22.3710259 C88.3663269,22.7443899 88.3163499,23.1279364 88.2722892,23.4778494 L88.2626364,23.5571506 C87.9225767,24.8089602 87.4206185,26.0119478 86.7692441,27.1361986 L86.7692441,27.1361986 Z M103.054101,34.0013118 C103.052389,34.0013118 102.668765,34.3399621 102.668765,34.3399621 C102.121043,34.8253352 101.55744,35.3446505 100.877068,35.0848386 C100.689148,35.0172628 100.556966,34.7690221 100.525205,34.5764774 C100.494223,33.1876253 101.12524,31.9007541 101.737419,30.6475165 L101.894356,30.3199745 C103.654915,27.4069646 105.701323,23.9744851 108.70679,21.5923616 C109.213255,21.2302603 109.762845,20.926015 110.342952,21.1633017 C110.476379,21.2873449 110.631759,21.501952 110.631759,21.7162506 C110.631759,21.7842892 110.570728,21.9647998 110.535698,22.021113 C109.696209,23.3653774 108.89689,24.7764461 108.119522,26.131356 C106.600285,28.8073878 105.024221,31.5732121 103.054101,34.0013118 L103.054101,34.0013118 Z" id="Shape"></path>
                </g>
            </g>
        </g>
    </g>
</svg>