<?xml version="1.0" encoding="UTF-8"?>
<svg width="160px" height="84px" viewBox="0 0 160 84" version="1.1" xmlns="http://www.w3.org/2000/svg" xmlns:xlink="http://www.w3.org/1999/xlink">
    <title>4</title>
    <defs>
        <rect id="path-1" x="0" y="0" width="160" height="84"></rect>
    </defs>
    <g id="ðŸ”-Enterprise:-Homepage" stroke="none" stroke-width="1" fill="none" fill-rule="evenodd">
        <g id="Logos" transform="translate(-736.000000, -637.000000)">
            <g id="4" transform="translate(736.000000, 637.000000)">
                <mask id="mask-2" fill="white">
                    <use xlink:href="#path-1"></use>
                </mask>
                <g id="Rectangle"></g>
                <g id="CBS_logo" mask="url(#mask-2)" fill="#222222" fill-rule="nonzero">
                    <g transform="translate(16.000000, 23.000000)">
                        <path d="M19.2634396,0 C8.53276661,0 0,8.76441947 0,19.4404502 C0,30.233418 8.53276661,39 19.2634396,39 C30.0507339,39 38.4690518,30.2349936 38.4690518,19.4438531 C38.470878,8.76782231 30.0507339,0 19.2634396,0 Z M19.2634396,8.25189774 C28.0251478,8.25189774 34.4436728,13.8180616 37.1560217,19.4438531 C34.4436728,25.1555204 28.0251478,30.7481023 19.2634396,30.7481023 C10.4451095,30.7481023 4.07797825,25.1536932 1.36745589,19.4438531 C4.07797825,13.8198888 10.446936,8.25530058 19.2634396,8.25530058 L19.2634396,8.25189774 L19.2634396,8.25189774 Z M19.2634396,9.13663729 C13.5556348,9.13663729 8.90206983,13.758018 8.90206983,19.4404502 C8.90206983,25.2087594 13.5556348,29.8055144 19.2634396,29.8055144 C24.9712446,29.8055144 29.56358,25.2085078 29.56358,19.4438531 C29.56358,13.7614208 24.9712446,9.13663729 19.2634396,9.13663729 Z" id="path3003"></path>
                        <path d="M56.8854848,2.31393421 C46.8105248,2.31393421 39.7888845,9.96463918 39.7888845,19.270308 L39.7888845,19.3826019 C39.7888845,28.8033805 46.9535784,36.2573074 56.6303625,36.2573074 C62.9372585,36.2573074 66.7055489,34.0006793 70.0736105,30.3737894 L65.4780062,25.7527266 C62.9081242,28.0914771 60.5937106,29.6081494 56.8548702,29.6081494 C51.2329104,29.6081494 47.3234985,24.8924451 47.3234985,19.270308 L47.3234985,19.1852369 C47.3234985,13.5612726 51.3187567,8.96309223 56.8548702,8.96309223 C60.1370865,8.96309223 62.7060368,10.3624257 65.2466953,12.6755955 L69.8422995,7.36375534 C66.7883952,4.36723123 63.0791375,2.31393421 56.8854848,2.31393421 Z" id="path3005"></path>
                        <path d="M72.7915141,2.88220923 L72.7915141,35.6822267 L88.4016014,35.6822267 C95.7916106,35.6822267 100.671286,32.6883628 100.671286,26.6953145 L100.671286,26.5796178 C100.671286,22.1834978 98.3338583,19.9828985 94.5347431,18.5284879 C96.8763131,17.216595 98.8446103,15.1615111 98.8446103,11.4505715 L98.8446103,11.3655004 C98.8446103,9.10714416 98.101669,7.2807009 96.5893286,5.76782131 C94.7080358,3.91326565 91.7680889,2.88220923 88.0274219,2.88220923 L72.7915141,2.88220923 Z M79.80908,9.19107736 L86.9457031,9.19107736 C89.9996073,9.19107736 91.6807742,10.4184806 91.6807742,12.5598988 L91.6807742,12.6755955 C91.6807742,15.102049 89.6556409,16.1294826 86.4592698,16.1294826 L79.80908,16.13288 L79.80908,9.19107736 L79.80908,9.19107736 Z M79.80908,22.1286919 L88.1736921,22.1286919 C91.8522578,22.1286919 93.5074504,23.5002211 93.5074504,25.6982811 L93.5074504,25.810575 C93.5074504,28.2370285 91.5687479,29.3495332 88.4016014,29.3495332 L79.80908,29.3529306 L79.80908,22.1286919 L79.80908,22.1286919 Z" id="path3007"></path>
                        <path d="M114.818672,2.39900532 C108.140997,2.39900532 103.348371,6.33746944 103.348371,12.3012826 L103.348371,12.3897566 C103.348371,18.9017152 107.626329,20.729905 114.219985,22.4145363 C119.699475,23.8397128 120.83956,24.752469 120.83956,26.5796178 L120.83956,26.6953145 C120.83956,28.606512 119.039917,29.7782916 116.101087,29.7782916 C112.333023,29.7782916 109.251853,28.2336256 106.311192,25.8071721 L102.031939,30.9182445 C105.969868,34.4300246 110.991972,36.1450135 115.958219,36.1450135 L115.958219,36.1416161 C123.035893,36.1416161 128,32.4853725 128,25.9807227 L128,25.8956515 C128,20.1584047 124.234475,17.7838628 117.584199,16.0444169 C111.934842,14.5863465 110.505403,13.8744258 110.505403,11.7330076 L110.505403,11.6479365 C110.505403,10.0491811 111.961259,8.76572725 114.73023,8.76572725 C117.4992,8.76572725 120.353491,9.99096249 123.264929,12.0154437 L127.003317,6.56748975 C123.69188,3.91264279 119.613231,2.39900532 114.818672,2.39900532 Z" id="path3009"></path>
                    </g>
                </g>
            </g>
        </g>
    </g>
</svg>