<svg width="56" height="57" viewBox="0 0 56 57" fill="none" xmlns="http://www.w3.org/2000/svg">
<path d="M39.3355 7.97607H16.5625V27.9759H39.3355V7.97607Z" fill="white" stroke="#31363E" stroke-width="1.5" stroke-linejoin="round"/>
<path d="M39.3337 7.97607H35.1387V27.9759H39.3337V7.97607Z" fill="#B5E8E8" stroke="#31363E" stroke-width="0.954191" stroke-linecap="round" stroke-linejoin="round"/>
<path d="M35.1387 27.71V8.53174" stroke="#31363E" stroke-width="0.857143" stroke-linecap="round" stroke-linejoin="round"/>
<path d="M30.9198 8.80957H21.8105V12.4207H30.9198V8.80957Z" fill="#B5E8E8"/>
<path d="M22.8887 24.7314H29.5244" stroke="#17BCB5" stroke-width="0.954191" stroke-linejoin="round"/>
<path d="M30.2247 20.3898L28.4571 17.9761L26.6895 20.3898H27.6347V23.1771H29.2795V20.3898H30.2247Z" fill="#17BCB5"/>
<path d="M23.9551 17.9766L22.1875 20.3903H23.1327V23.1776H24.7775V20.3903H25.7228L23.9551 17.9766Z" fill="#17BCB5"/>
<path d="M29.5753 27.9761H7.88672V47.9759H29.5753V27.9761Z" fill="white" stroke="#31363E" stroke-width="1.5" stroke-linejoin="round"/>
<path d="M29.5734 27.9766H25.5781V47.9764H29.5734V27.9766Z" fill="#B5E8E8" stroke="#31363E" stroke-width="0.954191" stroke-linecap="round" stroke-linejoin="round"/>
<path d="M25.5781 47.7105V28.5322" stroke="#31363E" stroke-width="0.857143" stroke-linecap="round" stroke-linejoin="round"/>
<path d="M21.5602 28.8096H12.8848V32.4207H21.5602V28.8096Z" fill="#B5E8E8"/>
<path d="M13.9512 44.7314H20.6397" stroke="#17BCB5" stroke-width="0.954191" stroke-linejoin="round"/>
<path d="M21.3466 40.3893L19.5649 37.9756L17.7832 40.3893H18.736V43.1766H20.3938V40.3893H21.3466Z" fill="#17BCB5"/>
<path d="M15.0278 37.9756L13.2461 40.3893H14.1989V43.1766H15.8567V40.3893H16.8095L15.0278 37.9756Z" fill="#17BCB5"/>
<path d="M47.8859 27.9761H26.1973V47.9759H47.8859V27.9761Z" fill="white" stroke="#31363E" stroke-width="1.5" stroke-linejoin="round"/>
<path d="M47.8839 27.9766H43.8887V47.9764H47.8839V27.9766Z" fill="#B5E8E8" stroke="#31363E" stroke-linecap="round" stroke-linejoin="round"/>
<path d="M43.8887 47.71V28.5317" stroke="#31363E" stroke-width="0.857143" stroke-linecap="round" stroke-linejoin="round"/>
<path d="M39.8708 28.8101H31.1953V32.4211H39.8708V28.8101Z" fill="#B5E8E8"/>
<path d="M32.2617 44.7314H38.9502" stroke="#17BCB5" stroke-width="0.954191" stroke-linejoin="round"/>
<path d="M39.6572 40.3903L37.8755 37.9766L36.0938 40.3903H37.0465V43.1776H38.7044V40.3903H39.6572Z" fill="#17BCB5"/>
<path d="M33.3383 37.9766L31.5566 40.3903H32.5094V43.1776H34.1673V40.3903H35.12L33.3383 37.9766Z" fill="#17BCB5"/>
</svg>
