<svg width="56" height="56" viewBox="0 0 56 56" fill="none" xmlns="http://www.w3.org/2000/svg">
<g clip-path="url(#clip0_267_61674)">
<path d="M16.0213 47V24.7385L11.1458 26.1703L7 19.6158C11.7207 16.6567 16.9942 11.937 23.0748 12.0006C22.9974 14.737 25.2306 17.0067 27.9945 17.0067C30.7584 17.0067 33.0026 14.737 32.9142 12.0006C38.9947 11.937 44.2682 16.6567 49 19.6158L44.8542 26.1703L39.9787 24.7385V47H28.7131H16.0213Z" fill="white"/>
<path d="M16.0213 47H15.0213C15.0213 47.5523 15.469 48 16.0213 48V47ZM16.0213 24.7385H17.0213V23.4026L15.7395 23.779L16.0213 24.7385ZM11.1458 26.1703L10.3007 26.7049C10.5394 27.0822 10.9992 27.2556 11.4276 27.1298L11.1458 26.1703ZM7 19.6158L6.46889 18.7685C6.24357 18.9097 6.08379 19.1349 6.02486 19.3942C5.96593 19.6535 6.01272 19.9256 6.15487 20.1503L7 19.6158ZM23.0748 12.0006L24.0744 12.0289C24.0819 11.7607 23.9814 11.5007 23.7954 11.3074C23.6094 11.114 23.3535 11.0035 23.0852 11.0007L23.0748 12.0006ZM32.9142 12.0006L32.9037 11.0007C32.6347 11.0035 32.3782 11.1146 32.1921 11.3088C32.006 11.5031 31.906 11.7641 31.9147 12.0329L32.9142 12.0006ZM49 19.6158L49.8451 20.1503C49.9874 19.9255 50.0341 19.6531 49.975 19.3937C49.9159 19.1342 49.7558 18.909 49.5302 18.7679L49 19.6158ZM44.8542 26.1703L44.5724 27.1298C45.0008 27.2556 45.4606 27.0822 45.6993 26.7049L44.8542 26.1703ZM39.9787 24.7385L40.2605 23.779L38.9787 23.4026V24.7385H39.9787ZM39.9787 47V48C40.531 48 40.9787 47.5523 40.9787 47H39.9787ZM17.0213 47V24.7385H15.0213V47H17.0213ZM15.7395 23.779L10.8641 25.2109L11.4276 27.1298L16.3031 25.698L15.7395 23.779ZM11.991 25.6358L7.84513 19.0812L6.15487 20.1503L10.3007 26.7049L11.991 25.6358ZM7.53111 20.4631C8.73348 19.7094 9.97278 18.8425 11.2129 17.9939C12.4636 17.138 13.7287 16.2911 15.0277 15.5405C17.6331 14.0352 20.2859 12.9715 23.0643 13.0006L23.0852 11.0007C19.7831 10.9661 16.7588 12.2305 14.0272 13.8088C12.6576 14.6001 11.3392 15.484 10.0834 16.3433C8.81703 17.2099 7.62688 18.0426 6.46889 18.7685L7.53111 20.4631ZM22.0752 11.9724C21.9815 15.2826 24.678 18.0067 27.9945 18.0067V16.0067C25.7832 16.0067 24.0132 14.1914 24.0744 12.0289L22.0752 11.9724ZM27.9945 18.0067C31.3071 18.0067 34.0209 15.2854 33.9137 11.9683L31.9147 12.0329C31.9844 14.1886 30.2096 16.0067 27.9945 16.0067V18.0067ZM32.9247 13.0006C35.7031 12.9715 38.3558 14.0352 40.9628 15.5407C42.2626 16.2913 43.5288 17.1383 44.7812 17.9942C46.023 18.843 47.2644 19.7099 48.4698 20.4636L49.5302 18.7679C48.3697 18.0422 47.1775 17.2095 45.9097 16.343C44.6525 15.4838 43.3331 14.6 41.963 13.8087C39.2301 12.2305 36.2058 10.9661 32.9037 11.0007L32.9247 13.0006ZM48.1549 19.0812L44.009 25.6358L45.6993 26.7049L49.8451 20.1503L48.1549 19.0812ZM45.136 25.2109L40.2605 23.779L39.6969 25.698L44.5724 27.1298L45.136 25.2109ZM38.9787 24.7385V47H40.9787V24.7385H38.9787ZM39.9787 46H28.7131V48H39.9787V46ZM28.7131 46H16.0213V48H28.7131V46Z" fill="#31363E"/>
<path d="M25 5.82286C25 4.26857 26.344 3 28 3C29.656 3 31 4.25714 31 5.82286C31 7.38857 29.656 8.64571 28 8.64571V11" stroke="#31363E" stroke-width="1.45" stroke-miterlimit="10" stroke-linecap="round"/>
<path d="M26 11.4717H30" stroke="#31363E" stroke-width="1.44" stroke-miterlimit="10" stroke-linecap="round"/>
<path d="M28.1395 22L30.0358 25.85L34.279 26.4689L31.2093 29.4692L31.9322 33.7073L28.1395 31.7036L24.3468 33.7073L25.0698 29.4692L22 26.4689L26.2432 25.85L28.1395 22Z" fill="#17BCB5" stroke="#17BCB5" stroke-width="0.797329" stroke-linejoin="round"/>
</g>
<defs>
<clipPath id="clip0_267_61674">
<rect width="56" height="56" fill="white"/>
</clipPath>
</defs>
</svg>
