<svg width="56" height="56" viewBox="0 0 56 56" fill="none" xmlns="http://www.w3.org/2000/svg">
<path d="M42.2408 9H13.7598V12.3698H42.2408V9Z" fill="white" stroke="#31363E" stroke-width="2" stroke-linejoin="round"/>
<path d="M42.2408 21.9595H13.7598V47H42.2408V21.9595Z" fill="white" stroke="#31363E" stroke-width="2" stroke-linejoin="round"/>
<path d="M47 12.3701H9V21.96H47V12.3701Z" fill="white" stroke="#31363E" stroke-width="2" stroke-linejoin="round"/>
<path d="M25.5323 14.6138H25.4463C24.9997 14.6138 24.6377 14.9785 24.6377 15.4285V15.5152C24.6377 15.9651 24.9997 16.3299 25.4463 16.3299H25.5323C25.9789 16.3299 26.3409 15.9651 26.3409 15.5152V15.4285C26.3409 14.9785 25.9789 14.6138 25.5323 14.6138Z" fill="#31363E"/>
<path d="M27.7725 14.6138H27.6865C27.2399 14.6138 26.8779 14.9785 26.8779 15.4285V15.5152C26.8779 15.9651 27.2399 16.3299 27.6865 16.3299H27.7725C28.2191 16.3299 28.5811 15.9651 28.5811 15.5152V15.4285C28.5811 14.9785 28.2191 14.6138 27.7725 14.6138Z" fill="#31363E"/>
<path d="M30.0743 14.6138H29.9883C29.5417 14.6138 29.1797 14.9785 29.1797 15.4285V15.5152C29.1797 15.9651 29.5417 16.3299 29.9883 16.3299H30.0743C30.5209 16.3299 30.8829 15.9651 30.8829 15.5152V15.4285C30.8829 14.9785 30.5209 14.6138 30.0743 14.6138Z" fill="#31363E"/>
<path d="M25.3262 25.8368L25.0937 25.8345C21.8069 25.8345 19.1294 28.2931 16.5927 29.9577C16.5614 29.9782 16.5517 30.0184 16.5691 30.0516L18.483 33.7092C18.4992 33.7401 18.5348 33.7552 18.568 33.7453L21.2623 32.9396L21.3055 43.1907H34.4168V40.5265L34.4238 32.945L37.1227 33.7521C37.1538 33.7614 37.1872 33.7488 37.2047 33.7213L39.4276 30.2136C39.449 30.1798 39.4407 30.1364 39.4074 30.1145C36.8672 28.4476 33.8234 25.5874 30.7566 25.8415C30.7566 27.3623 29.5386 28.5904 28.0334 28.5904H28.0493C26.5442 28.5904 25.3262 27.3599 25.3262 25.8392L30.7566 25.8415" fill="#B5E8E8"/>
<path d="M25.3262 25.8368L25.0937 25.8345C21.8069 25.8345 19.1294 28.2931 16.5927 29.9577C16.5614 29.9782 16.5517 30.0184 16.5691 30.0516L18.483 33.7092C18.4992 33.7401 18.5348 33.7552 18.568 33.7453L21.2623 32.9396L21.3055 43.1907H34.4168V40.5265L34.4238 32.945L37.1227 33.7521C37.1538 33.7614 37.1872 33.7488 37.2047 33.7213L39.4276 30.2136C39.449 30.1798 39.4407 30.1364 39.4074 30.1145C36.8672 28.4476 33.8234 25.5874 30.7566 25.8415M30.7566 25.8415C30.7566 27.3623 29.5386 28.5904 28.0334 28.5904H28.0493C26.5442 28.5904 25.3262 27.3599 25.3262 25.8392L30.7566 25.8415Z" stroke="#31363E" stroke-width="1.5" stroke-linecap="round" stroke-linejoin="round"/>
<path d="M31.4075 33.7829C31.4346 33.7563 31.4442 33.7167 31.4324 33.6806C31.4207 33.6445 31.3894 33.6181 31.3519 33.6126L29.0978 33.2829L28.0898 31.2251C28.073 31.1908 28.0381 31.169 28 31.169C27.9618 31.169 27.9269 31.1908 27.9101 31.225L26.902 33.2829L24.6486 33.6126C24.611 33.6181 24.5798 33.6445 24.568 33.6806C24.5562 33.7167 24.5659 33.7563 24.593 33.7829L26.2242 35.3841L25.8388 37.6486C25.8324 37.6861 25.8479 37.7241 25.8788 37.7464C25.9097 37.7687 25.9505 37.7715 25.9842 37.7537L27.9999 36.6855L30.0157 37.7537C30.0494 37.7715 30.0902 37.7687 30.1211 37.7464C30.152 37.7241 30.1675 37.6861 30.1611 37.6486L29.7763 35.3852L31.4075 33.7829Z" fill="#17BCB5" stroke="#17BCB5" stroke-width="0.2" stroke-linejoin="round"/>
<path d="M19.6074 21.9595V18.4946H35.8326V21.9595" stroke="#31363E" stroke-width="1.5" stroke-linecap="round" stroke-linejoin="round"/>
<path d="M39.4385 15.4717H42.4791" stroke="#17BCB5" stroke-width="1.5" stroke-linejoin="round"/>
</svg>
