<svg width="32" height="33" viewBox="0 0 32 33" fill="none" xmlns="http://www.w3.org/2000/svg">
<path fill-rule="evenodd" clip-rule="evenodd" d="M8.8841 3.12402L13.628 6.9893C10.8679 8.4827 7.67655 12.1723 6.90027 15.3348C7.15903 15.1591 7.93531 15.0712 8.62534 15.0712C11.903 15.0712 14.4906 17.6188 14.4906 21.3962C14.4906 25.1736 11.3854 28.3361 7.67655 28.3361C3.62264 28.3361 0 25.0858 0 19.3757C0 12.7872 3.53639 6.90145 8.8841 3.12402ZM26.3916 3.12402L31.2218 6.9893C28.4617 8.4827 25.184 12.1723 24.494 15.3348C24.7528 15.1591 25.5291 15.0712 26.2191 15.0712C29.4105 15.0712 31.9981 17.6188 31.9981 21.3962C31.9981 25.1736 28.9792 28.3361 25.184 28.3361C21.1301 28.3361 17.5938 25.0858 17.5938 19.3757C17.5938 12.7872 21.0439 6.90145 26.3916 3.12402Z" fill="#008384"/>
</svg>
