<svg width="127" height="36" viewBox="0 0 127 36" fill="none" xmlns="http://www.w3.org/2000/svg">
<g clip-path="url(#clip0_3418_83687)">
<path d="M27.4269 6.8184C27.4024 6.63958 27.2462 6.54037 27.1165 6.52957C26.9879 6.51877 24.467 6.48047 24.467 6.48047C24.467 6.48047 22.3588 4.43316 22.1505 4.2249C21.9423 4.01663 21.5356 4.0795 21.3774 4.12666C21.3755 4.12764 20.9815 4.24946 20.3184 4.45478C20.2074 4.09522 20.0443 3.65314 19.8115 3.20911C19.061 1.77678 17.9617 1.01936 16.6334 1.0174C16.6315 1.0174 16.6305 1.0174 16.6285 1.0174C16.5362 1.0174 16.4448 1.02624 16.3525 1.0341C16.3132 0.986943 16.2739 0.940775 16.2327 0.89558C15.654 0.276678 14.9123 -0.0249156 14.0233 0.00160886C12.308 0.0507283 10.5997 1.28952 9.21448 3.49007C8.23995 5.03831 7.49823 6.98347 7.28801 8.48945C5.31831 9.0995 3.941 9.52584 3.91054 9.53569C2.91637 9.84807 2.88493 9.87852 2.75526 10.8158C2.65898 11.524 0.0576172 31.6395 0.0576172 31.6395L21.8578 35.4098L31.3064 33.0609C31.3064 33.0609 27.4515 6.99722 27.4269 6.8184ZM19.227 4.79272C18.725 4.94793 18.1542 5.12477 17.5353 5.31633C17.5225 4.4479 17.4194 3.23956 17.0146 2.19528C18.3163 2.44186 18.9568 3.91446 19.227 4.79272ZM16.3947 5.66999C15.2522 6.02363 14.0056 6.40971 12.755 6.7968C13.1067 5.44993 13.7737 4.10897 14.5931 3.22974C14.8976 2.9026 15.3239 2.53814 15.8289 2.32987C16.3034 3.32011 16.4065 4.72198 16.3947 5.66999ZM14.0576 1.14314C14.4604 1.1343 14.7993 1.22272 15.0892 1.4133C14.6255 1.65399 14.1775 1.99979 13.757 2.4507C12.6675 3.61975 11.8325 5.43422 11.4995 7.18483C10.4611 7.50606 9.4453 7.82144 8.51006 8.11027C9.10052 5.35465 11.4101 1.21977 14.0576 1.14314Z" fill="#95BF47"/>
<path d="M27.1176 6.53057C26.9889 6.51977 24.4681 6.48147 24.4681 6.48147C24.4681 6.48147 22.3599 4.43416 22.1517 4.2259C22.0741 4.14828 21.969 4.108 21.8589 4.09131L21.8599 35.4089L31.3075 33.061C31.3075 33.061 27.4526 6.99822 27.4281 6.8194C27.4035 6.64058 27.2463 6.54137 27.1176 6.53057Z" fill="#5E8E3E"/>
<path d="M16.6214 11.3885L15.5241 15.4939C15.5241 15.4939 14.3 14.9369 12.8491 15.0282C10.7212 15.1628 10.6986 16.5047 10.7202 16.8417C10.8361 18.6778 15.6665 19.0786 15.9377 23.3795C16.1509 26.7629 14.1428 29.0774 11.2497 29.2601C7.77696 29.4791 5.86523 27.4309 5.86523 27.4309L6.60106 24.301C6.60106 24.301 8.52552 25.753 10.0659 25.6557C11.0719 25.5919 11.4314 24.7735 11.3951 24.1949C11.2438 21.7998 7.31032 21.9413 7.0618 18.0058C6.85253 14.6942 9.02757 11.3384 13.8265 11.0358C15.6754 10.917 16.6214 11.3885 16.6214 11.3885Z" fill="white"/>
<path d="M43.7487 19.985C42.6623 19.3955 42.1039 18.8986 42.1039 18.2155C42.1039 17.3464 42.8795 16.788 44.0907 16.788C45.5006 16.788 46.7595 17.3776 46.7595 17.3776L47.7524 14.3356C47.7524 14.3356 46.8394 13.6213 44.1521 13.6213C40.4124 13.6213 37.8206 15.763 37.8206 18.7738C37.8206 20.4809 39.0308 21.7847 40.6453 22.7152C41.949 23.4596 42.4148 23.9877 42.4148 24.7633C42.4148 25.5702 41.7629 26.222 40.5527 26.222C38.7491 26.222 37.0459 25.2905 37.0459 25.2905L35.9907 28.3325C35.9907 28.3325 37.5643 29.3877 40.2117 29.3877C44.0605 29.3877 46.8229 27.4945 46.8229 24.0803C46.8219 22.2504 45.4256 20.9467 43.7487 19.985Z" fill="black"/>
<path d="M59.0816 13.5912C57.1882 13.5912 55.6984 14.4915 54.5506 15.8567L54.4882 15.8254L56.1329 7.22852H51.8496L47.6909 29.1091H51.9743L53.4018 21.6298C53.9601 18.8051 55.4187 17.0678 56.7848 17.0678C57.7465 17.0678 58.1197 17.7196 58.1197 18.6511C58.1197 19.2407 58.0573 19.9549 57.9336 20.5444L56.32 29.1101H60.6036L62.2791 20.2647C62.4656 19.3332 62.5901 18.2166 62.5901 17.4712C62.5883 15.0498 61.3159 13.5912 59.0816 13.5912Z" fill="black"/>
<path d="M72.2717 13.5913C67.119 13.5913 63.7061 18.2469 63.7061 23.4296C63.7061 26.7503 65.7539 29.4192 69.603 29.4192C74.6619 29.4192 78.076 24.8883 78.076 19.5808C78.076 16.5086 76.2754 13.5913 72.2717 13.5913ZM70.1613 26.1306C68.7024 26.1306 68.0815 24.8892 68.0815 23.337C68.0815 20.8855 69.3545 16.8818 71.6821 16.8818C73.203 16.8818 73.6987 18.1855 73.6987 19.4581C73.6987 22.0957 72.4275 26.1306 70.1613 26.1306Z" fill="black"/>
<path d="M89.032 13.5913C86.1408 13.5913 84.5001 16.1364 84.5001 16.1364H84.4387L84.6872 13.8398H80.9007C80.7148 15.392 80.3725 17.75 80.032 19.5194L77.0522 35.1923H81.3357L82.5142 28.8608H82.6081C82.6081 28.8608 83.4868 29.4192 85.1221 29.4192C90.1498 29.4192 93.4393 24.2676 93.4393 19.0527C93.4393 16.1676 92.1663 13.5913 89.032 13.5913ZM84.9351 26.192C83.8232 26.192 83.1652 25.5713 83.1652 25.5713L83.8793 21.5676C84.3762 18.8988 85.7725 17.1293 87.2627 17.1293C88.5664 17.1293 88.9694 18.3395 88.9694 19.4883C88.9694 22.2506 87.3246 26.192 84.9351 26.192Z" fill="black"/>
<path d="M99.5536 7.4458C98.1885 7.4458 97.1021 8.53223 97.1021 9.9285C97.1021 11.2011 97.9088 12.0702 99.1192 12.0702H99.1812C100.516 12.0702 101.664 11.1699 101.695 9.58751C101.695 8.3461 100.857 7.4458 99.5536 7.4458Z" fill="black"/>
<path d="M93.564 29.1093H97.8462L100.765 13.9333H96.4499L93.564 29.1093Z" fill="black"/>
<path d="M111.658 13.9021H108.679L108.833 13.1878C109.082 11.7292 109.951 10.4255 111.379 10.4255C112.141 10.4255 112.744 10.6428 112.744 10.6428L113.582 7.29092C113.582 7.29092 112.837 6.9187 111.254 6.9187C109.733 6.9187 108.213 7.35324 107.064 8.34613C105.605 9.58754 104.922 11.3872 104.581 13.1878L104.458 13.9021H102.471L101.85 17.1302H103.837L101.571 29.1102H105.855L108.12 17.1302H111.069L111.658 13.9021Z" fill="black"/>
<path d="M121.962 13.9334C121.962 13.9334 119.284 20.6789 118.082 24.3612H118.019C117.938 23.1753 116.964 13.9334 116.964 13.9334H112.464L115.041 27.8679C115.103 28.1778 115.072 28.3649 114.948 28.5821C114.45 29.5439 113.613 30.4754 112.619 31.1584C111.813 31.7479 110.913 32.1201 110.199 32.3686L111.378 36.0001C112.248 35.814 114.047 35.0998 115.568 33.6723C117.524 31.8414 119.323 29.0167 121.185 25.1679L126.431 13.9324H121.962V13.9334Z" fill="black"/>
</g>
<defs>
<clipPath id="clip0_3418_83687">
<rect width="126.885" height="36" fill="white" transform="translate(0.0576172)"/>
</clipPath>
</defs>
</svg>
