<svg width="148" height="36" viewBox="0 0 148 36" fill="none" xmlns="http://www.w3.org/2000/svg">
<g clip-path="url(#clip0_3418_83162)">
<path d="M39.2292 12.7593H54.0718V15.5285H48.2357V31.0957H45.0265V15.5285H39.2163V12.7593H39.2292ZM53.4377 17.8189H56.1811V20.3811H56.2328C56.3234 20.0188 56.4916 19.6694 56.7375 19.333C56.9834 18.9965 57.281 18.673 57.6304 18.4013C57.9798 18.1166 58.368 17.8966 58.795 17.7154C59.2221 17.5472 59.662 17.4566 60.102 17.4566C60.4384 17.4566 60.6843 17.4696 60.8137 17.4825C60.9431 17.4954 61.0725 17.5213 61.2149 17.5343V20.3553C61.0078 20.3164 60.8008 20.2906 60.5808 20.2647C60.3608 20.2388 60.1538 20.2258 59.9467 20.2258C59.455 20.2258 58.9891 20.3294 58.5492 20.5235C58.1092 20.7176 57.7339 21.0152 57.4104 21.3905C57.0869 21.7787 56.8281 22.2445 56.634 22.8139C56.4399 23.3833 56.3493 24.0303 56.3493 24.7679V31.0828H53.4248V17.8189H53.4377ZM74.6599 31.0957H71.7871V29.2453H71.7354C71.373 29.9182 70.8425 30.4487 70.1308 30.8499C69.419 31.251 68.6944 31.4581 67.9568 31.4581C66.2098 31.4581 64.9417 31.031 64.1653 30.164C63.3888 29.297 63.0006 27.99 63.0006 26.2431V17.8189H65.9251V25.9584C65.9251 27.123 66.1451 27.9512 66.598 28.43C67.038 28.9088 67.6721 29.1547 68.4744 29.1547C69.0955 29.1547 69.6002 29.0641 70.0143 28.87C70.4284 28.6759 70.7648 28.43 71.0107 28.1065C71.2695 27.7959 71.4507 27.4077 71.5671 26.9678C71.6836 26.5278 71.7354 26.049 71.7354 25.5314V17.8319H74.6599V31.0957ZM79.6419 26.8384C79.7325 27.6924 80.056 28.2877 80.6124 28.6371C81.1818 28.9735 81.8547 29.1547 82.6441 29.1547C82.9158 29.1547 83.2264 29.1288 83.5758 29.09C83.9252 29.0512 84.2616 28.9606 84.5592 28.8441C84.8698 28.7276 85.1157 28.5465 85.3227 28.3136C85.5168 28.0806 85.6074 27.783 85.5945 27.4077C85.5815 27.0325 85.4392 26.7219 85.1804 26.489C84.9216 26.2431 84.598 26.0619 84.1969 25.9067C83.7957 25.7643 83.3428 25.6349 82.8252 25.5314C82.3076 25.4279 81.79 25.3114 81.2594 25.1949C80.716 25.0785 80.1854 24.9232 79.6807 24.755C79.176 24.5867 78.7231 24.3538 78.322 24.0562C77.9208 23.7715 77.5973 23.3962 77.3644 22.9433C77.1185 22.4904 77.0021 21.934 77.0021 21.2611C77.0021 20.5364 77.1832 19.9412 77.5326 19.4494C77.882 18.9577 78.3349 18.5695 78.8655 18.2719C79.409 17.9742 80.0042 17.7672 80.6642 17.6378C81.3241 17.5213 81.9582 17.4566 82.5535 17.4566C83.2393 17.4566 83.8993 17.5343 84.5204 17.6766C85.1415 17.8189 85.7109 18.0519 86.2156 18.3883C86.7203 18.7118 87.1344 19.1389 87.4708 19.6565C87.8073 20.1741 88.0143 20.8082 88.1049 21.5458H85.051C84.9086 20.847 84.5981 20.3682 84.0934 20.1353C83.5887 19.8894 83.0064 19.7729 82.3594 19.7729C82.1523 19.7729 81.9065 19.7859 81.6218 19.8247C81.3371 19.8635 81.0783 19.9282 80.8195 20.0188C80.5736 20.1094 80.3666 20.2517 80.1854 20.4329C80.0172 20.6141 79.9266 20.847 79.9266 21.1446C79.9266 21.5069 80.056 21.7916 80.3019 22.0116C80.5477 22.2316 80.8712 22.4128 81.2724 22.568C81.6735 22.7104 82.1264 22.8398 82.6441 22.9433C83.1617 23.0468 83.6922 23.1633 84.2357 23.2798C84.7663 23.3962 85.2839 23.5515 85.8015 23.7197C86.3191 23.888 86.772 24.1209 87.1732 24.4185C87.5743 24.7161 87.8978 25.0785 88.1437 25.5184C88.3896 25.9584 88.519 26.5148 88.519 27.1619C88.519 27.9512 88.3378 28.6112 87.9755 29.1676C87.6131 29.7111 87.1473 30.164 86.5779 30.5005C86.0085 30.8369 85.3615 31.0957 84.6627 31.251C83.964 31.4063 83.2652 31.4839 82.5794 31.4839C81.7382 31.4839 80.9618 31.3934 80.2501 31.1992C79.5384 31.0051 78.9172 30.7205 78.3996 30.3452C77.882 29.957 77.4679 29.4782 77.1703 28.9088C76.8727 28.3394 76.7174 27.6536 76.6915 26.8642H79.6419V26.8384ZM89.2954 17.8189H91.5082V13.8333H94.4327V17.8189H97.0725V20.0059H94.4327V27.0972C94.4327 27.4077 94.4456 27.6665 94.4715 27.8995C94.4974 28.1195 94.5621 28.3136 94.6527 28.4688C94.7433 28.6241 94.8856 28.7406 95.0797 28.8182C95.2738 28.8959 95.5197 28.9347 95.8561 28.9347C96.0632 28.9347 96.2702 28.9347 96.4773 28.9218C96.6843 28.9088 96.8914 28.8829 97.0984 28.8312V31.0957C96.7749 31.1345 96.4514 31.1604 96.1538 31.1992C95.8432 31.2381 95.5326 31.251 95.2091 31.251C94.4327 31.251 93.8116 31.1734 93.3457 31.031C92.8799 30.8887 92.5046 30.6687 92.2458 30.384C91.974 30.0993 91.8058 29.7499 91.7023 29.3229C91.6117 28.8959 91.547 28.4041 91.5341 27.8606V20.0317H89.3213V17.8189H89.2954ZM99.143 17.8189H101.912V19.6177H101.964C102.378 18.8412 102.947 18.2977 103.685 17.9613C104.423 17.6248 105.212 17.4566 106.079 17.4566C107.127 17.4566 108.033 17.6378 108.809 18.0131C109.586 18.3754 110.233 18.8801 110.75 19.5271C111.268 20.1741 111.643 20.9246 111.902 21.7787C112.161 22.6328 112.29 23.5515 112.29 24.522C112.29 25.4149 112.174 26.2819 111.941 27.1101C111.708 27.9512 111.359 28.6888 110.893 29.3358C110.427 29.9829 109.832 30.4875 109.107 30.8757C108.382 31.264 107.541 31.4581 106.558 31.4581C106.131 31.4581 105.704 31.4192 105.277 31.3416C104.85 31.264 104.436 31.1345 104.047 30.9663C103.659 30.7981 103.284 30.5781 102.96 30.3064C102.624 30.0346 102.352 29.7241 102.119 29.3747H102.067V36.0001H99.143V17.8189ZM109.366 24.4703C109.366 23.875 109.288 23.2927 109.133 22.7233C108.978 22.154 108.745 21.6622 108.434 21.2223C108.124 20.7823 107.735 20.4329 107.282 20.1741C106.817 19.9153 106.286 19.7729 105.691 19.7729C104.461 19.7729 103.53 20.2 102.909 21.054C102.287 21.9081 101.977 23.0468 101.977 24.4703C101.977 25.1432 102.055 25.7643 102.223 26.3337C102.391 26.9031 102.624 27.3948 102.96 27.8089C103.284 28.223 103.672 28.5465 104.125 28.7794C104.578 29.0253 105.108 29.1417 105.704 29.1417C106.377 29.1417 106.933 28.9994 107.399 28.7276C107.865 28.4559 108.24 28.0936 108.538 27.6665C108.835 27.2266 109.055 26.7348 109.185 26.1784C109.301 25.622 109.366 25.0526 109.366 24.4703ZM114.529 12.7593H117.454V15.5285H114.529V12.7593ZM114.529 17.8189H117.454V31.0957H114.529V17.8189ZM120.068 12.7593H122.992V31.0957H120.068V12.7593ZM131.96 31.4581C130.899 31.4581 129.954 31.2769 129.126 30.9275C128.298 30.5781 127.599 30.0864 127.016 29.4782C126.447 28.857 126.007 28.1194 125.709 27.2654C125.412 26.4113 125.257 25.4667 125.257 24.4444C125.257 23.4351 125.412 22.5033 125.709 21.6493C126.007 20.7952 126.447 20.0576 127.016 19.4365C127.586 18.8154 128.298 18.3366 129.126 17.9872C129.954 17.6378 130.899 17.4566 131.96 17.4566C133.021 17.4566 133.965 17.6378 134.794 17.9872C135.622 18.3366 136.321 18.8283 136.903 19.4365C137.472 20.0576 137.912 20.7952 138.21 21.6493C138.507 22.5033 138.663 23.4351 138.663 24.4444C138.663 25.4667 138.507 26.4113 138.21 27.2654C137.912 28.1194 137.472 28.857 136.903 29.4782C136.333 30.0993 135.622 30.5781 134.794 30.9275C133.965 31.2769 133.021 31.4581 131.96 31.4581ZM131.96 29.1417C132.607 29.1417 133.176 28.9994 133.655 28.7276C134.134 28.4559 134.522 28.0936 134.832 27.6536C135.143 27.2136 135.363 26.709 135.518 26.1525C135.661 25.5961 135.738 25.0267 135.738 24.4444C135.738 23.875 135.661 23.3186 135.518 22.7492C135.376 22.1798 135.143 21.6881 134.832 21.2481C134.522 20.8082 134.134 20.4588 133.655 20.187C133.176 19.9153 132.607 19.7729 131.96 19.7729C131.313 19.7729 130.743 19.9153 130.264 20.187C129.786 20.4588 129.397 20.8211 129.087 21.2481C128.776 21.6881 128.556 22.1798 128.401 22.7492C128.259 23.3186 128.181 23.875 128.181 24.4444C128.181 25.0267 128.259 25.5961 128.401 26.1525C128.543 26.709 128.776 27.2136 129.087 27.6536C129.397 28.0936 129.786 28.4559 130.264 28.7276C130.743 29.0123 131.313 29.1417 131.96 29.1417ZM139.517 17.8189H141.73V13.8333H144.654V17.8189H147.294V20.0059H144.654V27.0972C144.654 27.4077 144.667 27.6665 144.693 27.8995C144.719 28.1195 144.784 28.3136 144.874 28.4688C144.965 28.6241 145.107 28.7406 145.301 28.8182C145.495 28.8959 145.741 28.9347 146.078 28.9347C146.285 28.9347 146.492 28.9347 146.699 28.9218C146.906 28.9088 147.113 28.8829 147.32 28.8312V31.0957C146.996 31.1345 146.673 31.1604 146.375 31.1992C146.065 31.2381 145.754 31.251 145.431 31.251C144.654 31.251 144.033 31.1734 143.567 31.031C143.101 30.8887 142.726 30.6687 142.467 30.384C142.195 30.0993 142.027 29.7499 141.924 29.3229C141.833 28.8959 141.768 28.4041 141.755 27.8606V20.0317H139.543V17.8189H139.517Z" fill="#191919"/>
<path d="M35.8132 12.7592H22.407L18.2661 0L14.1122 12.7592L0.706055 12.7462L11.563 20.6398L7.40915 33.3861L18.2661 25.5054L29.1101 33.3861L24.9692 20.6398L35.8132 12.7592Z" fill="#00B67A"/>
<path d="M25.9009 23.5256L24.9692 20.6399L18.2661 25.5055L25.9009 23.5256Z" fill="#005128"/>
</g>
<defs>
<clipPath id="clip0_3418_83162">
<rect width="146.588" height="36" fill="white" transform="translate(0.706055)"/>
</clipPath>
</defs>
</svg>
