<svg width="36" height="24" viewBox="0 0 36 24" fill="none" xmlns="http://www.w3.org/2000/svg">
    <rect width="36" height="24" rx="4" fill="#006FCF"/>
    <g clip-path="url(#clip0_5678_34567)">
        <path d="M36 20C36 22.2091 34.2091 24 32 24H24.072H12V11.8805V0H23.9112H32C34.2091 0 36 1.79086 36 4V11.9986V20Z" fill="white"/>
        <path d="M32.197 24C34.2973 24 36 22.2973 36 20.197V20.197H33.1046L31.6138 18.5486L30.1157 20.197H20.5694V12.517H17.4883L21.312 3.86544H24.9979L26.3136 6.82896V3.86544H30.8736L31.6656 6.0984L32.4629 3.86544H36V3.86544C36 1.73062 34.2694 0 32.1346 0H12V24H32.197ZM33.5923 19.235H36L32.8152 15.8578L36 12.5189H33.6307L31.6627 14.6678L29.7149 12.5189H27.3077L30.4757 15.8789L27.3077 19.2389H29.6486L31.6253 17.0707L33.5933 19.2389L33.5923 19.235ZM34.1558 15.8606L36 17.8229V13.9147L34.1558 15.8606ZM23.424 17.6808V16.6349H27.216V15.12H23.424V14.0731H27.3072L27.3077 12.5189H21.589V19.235H27.3072V17.6808H23.424ZM34.1866 11.544H36V4.82736H33.179L31.6723 9.01104L30.1757 4.82736H27.3067V11.544H29.1202V6.8424L30.8482 11.544H32.4605L34.1885 6.8328V11.544H34.1866ZM25.2442 11.544H27.3082L24.3422 4.82736H21.984L19.0166 11.544H21.0326L21.5894 10.2H24.6787L25.2442 11.544ZM24.0442 8.69424H22.224L23.136 6.4968L24.048 8.69424H24.0442Z" fill="#006FCF"/>
    </g>
    <defs>
        <clipPath id="clip0_5678_34567">
            <rect width="24" height="24" fill="white" transform="translate(12)"/>
        </clipPath>
    </defs>
</svg>
