<?xml version="1.0" encoding="UTF-8"?>
<svg width="48px" height="32px" viewBox="0 0 48 32" version="1.1" xmlns="http://www.w3.org/2000/svg" xmlns:xlink="http://www.w3.org/1999/xlink">
    <title>Group 8 Copy 7</title>
    <defs>
        <rect id="path-1" x="0" y="0" width="48" height="32" rx="3"></rect>
    </defs>
    <g id="01-1-payment-history-copy" stroke="none" stroke-width="1" fill="none" fill-rule="evenodd">
        <g id="pf-billing-2-payment-history-view-desktop" transform="translate(-288.000000, -820.000000)">
            <g id="trustly" transform="translate(288.000000, 820.000000)">
                <mask id="mask-2" fill="white">
                    <use xlink:href="#path-1"></use>
                </mask>
                <use id="Mask" fill="#0EE06E" xlink:href="#path-1"></use>
                <g mask="url(#mask-2)" fill-rule="nonzero">
                    <g transform="translate(-1.000000, 0.000000)">
                        <rect id="Rectangle" fill="#0EE06E" x="0" y="0" width="49" height="32"></rect>
                        <polygon id="Path" fill="#000000" points="11.2566595 25 11.2566595 19.258766 9 19.258766 9 18 15 18 15 19.258766 12.7432868 19.258766 12.7432868 25"></polygon>
                        <path d="M15,25 L15,20 L16.2898017,20 L16.2898017,20.7909208 C16.6246131,20.1237858 17.0451351,20 17.4940182,20 L18,20 L18,21.2517865 L17.5581444,21.2517865 C16.9025768,21.2517865 16.3254413,21.6162399 16.3254413,22.723529 L16.3254413,24.9930961 L15,24.9930961 L15,25 Z" id="Path" fill="#000000"></path>
                        <path d="M18,23.1224224 L18,20.0067552 L19.4328937,20.0067552 L19.4328937,22.8263807 C19.4328937,23.4522399 19.8027515,23.8694003 20.4575328,23.8694003 C21.0893846,23.8694003 21.5592369,23.4522399 21.5592369,22.8331358 L21.5592369,20 L23,20 L23,24.8922731 L21.6132367,24.8922731 L21.6132367,24.273169 C21.2511126,24.7643991 20.6964615,25 19.9952784,25 C18.816645,25 18,24.3135814 18,23.1224224 Z" id="Path" fill="#000000"></path>
                        <path d="M24,23.5430711 L25.0771544,23.2980336 C25.1296703,23.7218633 25.4712551,24.0066712 26.0426836,24.0066712 C26.5090804,24.0066712 26.778369,23.8079354 26.778369,23.5497189 C26.778369,23.3378041 26.653557,23.1986658 26.200347,23.0861188 L25.4252169,22.9073266 C24.518797,22.6954118 24.0919607,22.2649343 24.0919607,21.4635768 C24.0919607,20.6490401 24.7684211,20 26.0032389,20 C27.3103528,20 27.84893,20.7815306 27.9212261,21.344382 L26.843956,21.5827716 C26.7914401,21.2847846 26.5681897,20.9669707 25.9769809,20.9669707 C25.5894737,20.9669707 25.3005205,21.1457629 25.3005205,21.4039794 C25.3005205,21.6291899 25.4712551,21.7550325 25.7339503,21.8212778 L26.7848467,22.0728464 C27.6058994,22.2715822 28,22.7550092 28,23.4636468 C28,24.2384129 27.3760555,25 26.049277,25 C24.6042799,25 24.065587,24.1325138 24,23.5430711 Z" id="Path" fill="#000000"></path>
                        <path d="M31.0833145,25 C30.282005,25 29.7755701,24.4747003 29.7755701,23.4904312 L29.7755701,20.8192345 L29,20.8192345 L29,19.6204669 L29.7755701,19.6204669 L29.7755701,18.3921178 L30.9679386,18 L30.9679386,19.6204669 L31.9166855,19.6204669 L31.9166855,20.8192345 L30.9679386,20.8192345 L30.9679386,23.2536488 C30.9679386,23.6458969 31.1345676,23.8012324 31.4806954,23.8012324 L32,23.8012324 L32,25 L31.0833145,25 L31.0833145,25 Z" id="Path" fill="#000000"></path>
                        <polygon id="Path" fill="#000000" points="33 25 33 18 34 18 34 25"></polygon>
                        <polygon id="Path" fill="#000000" points="38.6300692 20 40 20 37.8972763 27 36.5273455 27 37.1095993 25.1560738 36.4178186 25.1560738 35 20 36.3698101 20 37.4520518 24.0568125"></polygon>
                        <polygon id="Path" fill="#000000" points="18 9.81650645 22.8989832 9.81650645 22.8989832 5.72283013 26.807292 9.81650645 22.8989832 13.9101575 22.8989832 16 27.6408158 16 27.6408158 9.81650645 32 9.81650645 32 5 18 5"></polygon>
                    </g>
                </g>
            </g>
        </g>
    </g>
</svg>