<svg width="36" height="24" viewBox="0 0 36 24" fill="none" xmlns="http://www.w3.org/2000/svg">
<rect width="36" height="24" rx="4" fill="white"/>
<path d="M14.5823 8.15823L10.9329 16.8635H8.55226L6.75661 9.91758C6.64774 9.48935 6.55339 9.33258 6.22097 9.15258C5.67952 8.85935 4.78532 8.58355 4 8.41226L4.05371 8.15968H7.88597C8.37371 8.15968 8.81355 8.48484 8.92387 9.04806L9.87177 14.0852L12.2161 8.15968L14.5823 8.15823ZM23.9089 14.0227C23.919 11.7248 20.7313 11.5985 20.7531 10.5723C20.7603 10.2602 21.0579 9.92774 21.7082 9.84355C22.0305 9.80145 22.9203 9.76952 23.9277 10.2326L24.3226 8.38613C23.7811 8.19016 23.0829 8 22.2163 8C19.991 8 18.4232 9.18306 18.4102 10.8771C18.3956 12.1298 19.5279 12.8295 20.3814 13.2461C21.2597 13.6729 21.5544 13.9473 21.55 14.3276C21.5442 14.9111 20.8503 15.1695 20.2015 15.1797C19.0692 15.1971 18.4131 14.8734 17.889 14.6295L17.4811 16.5369C18.0066 16.7779 18.9792 16.9884 19.9852 17C22.3542 17.0014 23.9016 15.8315 23.9089 14.0227ZM29.7879 16.865H31.871L30.0521 8.15823H28.1302C27.6976 8.15823 27.3332 8.40935 27.1721 8.79693L23.7927 16.8635H26.1574L26.6263 15.5629H29.5164L29.7879 16.865ZM27.2752 13.7803L28.4611 10.5113L29.1434 13.7803H27.2752ZM17.799 8.15823L15.9366 16.8635H13.6852L15.5476 8.15823H17.799Z" fill="#1434CB"/>
</svg>
